<?xml version="1.0" standalone="no"?>
<!DOCTYPE svg PUBLIC "-//W3C//DTD SVG 1.1//EN" "http://www.w3.org/Graphics/SVG/1.1/DTD/svg11.dtd" >
<!--
2013-9-30: Created.
-->
<svg>
<metadata>
Created by iconfont
</metadata>
<defs>

<font id="iconfont" horiz-adv-x="1024" >
  <font-face
    font-family="iconfont"
    font-weight="500"
    font-stretch="normal"
    units-per-em="1024"
    ascent="896"
    descent="-128"
  />
    <missing-glyph />
    
    <glyph glyph-name="liebiao" unicode="&#983393;" d="M187.392 825.344q28.672 0 48.64-19.456t19.968-48.128l0-52.224q0-28.672-19.968-48.64t-48.64-19.968l-54.272 0q-27.648 0-47.616 19.968t-19.968 48.64l0 52.224q0 28.672 19.968 48.128t47.616 19.456l54.272 0zM889.856 825.344q27.648 0 47.616-19.456t19.968-48.128l0-52.224q0-28.672-19.968-48.64t-47.616-19.968l-437.248 0q-28.672 0-48.64 19.968t-19.968 48.64l0 52.224q0 28.672 19.968 48.128t48.64 19.456l437.248 0zM187.392 506.88q28.672 0 48.64-19.968t19.968-48.64l0-52.224q0-27.648-19.968-47.616t-48.64-19.968l-54.272 0q-27.648 0-47.616 19.968t-19.968 47.616l0 52.224q0 28.672 19.968 48.64t47.616 19.968l54.272 0zM889.856 506.88q27.648 0 47.616-19.968t19.968-48.64l0-52.224q0-27.648-19.968-47.616t-47.616-19.968l-437.248 0q-28.672 0-48.64 19.968t-19.968 47.616l0 52.224q0 28.672 19.968 48.64t48.64 19.968l437.248 0zM187.392 187.392q28.672 0 48.64-19.968t19.968-47.616l0-52.224q0-28.672-19.968-48.64t-48.64-19.968l-54.272 0q-27.648 0-47.616 19.968t-19.968 48.64l0 52.224q0 27.648 19.968 47.616t47.616 19.968l54.272 0zM889.856 187.392q27.648 0 47.616-19.968t19.968-47.616l0-52.224q0-28.672-19.968-48.64t-47.616-19.968l-437.248 0q-28.672 0-48.64 19.968t-19.968 48.64l0 52.224q0 27.648 19.968 47.616t48.64 19.968l437.248 0z"  horiz-adv-x="1024" />

    
    <glyph glyph-name="liebiao1" unicode="&#58926;" d="M475.09702 482.212836c0-40.939411-33.497928-74.437339-74.437339-74.437339L136.096143 407.775496c-40.940434 0-74.437339 33.497928-74.437339 74.437339L61.658803 758.039905c0 40.939411 33.495882 74.437339 74.437339 74.437339l264.565585 0c40.939411 0 74.437339-33.496905 74.437339-74.437339L475.09702 482.212836 475.09702 482.212836zM475.09702 9.947815c0-40.940434-33.497928-74.435293-74.437339-74.435293L136.096143-64.487477c-40.940434 0-74.437339 33.494858-74.437339 74.435293l0 275.821953c0 40.940434 33.495882 74.435293 74.437339 74.435293l264.565585 0c40.939411 0 74.437339-33.495882 74.437339-74.435293L475.09702 9.947815 475.09702 9.947815zM958.619432 482.212836c0-40.939411-33.495882-74.437339-74.437339-74.437339L619.603205 407.775496c-40.942481 0-74.436316 33.497928-74.436316 74.437339L545.166889 758.039905c0 40.939411 33.495882 74.437339 74.436316 74.437339l264.580934 0c40.940434 0 74.436316-33.496905 74.436316-74.437339L958.619432 482.212836zM958.623525 9.947815c0-40.940434-33.497928-74.435293-74.437339-74.435293L619.604228-64.487477c-40.941458 0-74.436316 33.494858-74.436316 74.435293l0 275.821953c0 40.940434 33.495882 74.435293 74.436316 74.435293l264.581957 0c40.940434 0 74.437339-33.495882 74.437339-74.435293L958.623525 9.947815z"  horiz-adv-x="1024" />

    
    <glyph glyph-name="dianhua" unicode="&#58993;" d="M809.370223 486.120842c-93.231381 30.68179-55.840796 89.130993-111.830995 111.832018-95.059006 38.546921-186.391131 37.281091-186.391131 37.281091s-91.031273 0.968048-186.387038-37.281091c-56.103786-22.512736-18.60473-81.149205-111.836111-111.832018-98.559736-32.432667-150.004409 15.096836-148.959613 73.812099 0.740874 39.36352 24.972764 83.760682 74.405617 112.578008 126.557394 73.808006 372.776122 74.55502 372.776122 74.55502s246.223844-0.748037 372.780215-74.55502c49.055253-28.630061 73.325006-72.579015 74.365708-111.721501C959.860702 501.665887 908.4191 453.540819 809.370223 486.120842L809.370223 486.120842zM383.915321 512.59582l63.444984 0 0-63.956637 127.913275 0 0 63.956637 63.956637 0 0-63.956637 256.167311-223.464491 0-149.109016c0-41.154305-44.871977-74.557066-86.027305-74.557066L212.923926 1.508609c-41.153282 0-85.005023 33.403784-85.005023 74.557066L127.918903 225.174692l255.997442 223.464491L383.916345 512.59582 383.915321 512.59582zM511.898181 96.14192c70.621431 0.001023 127.877459 57.256028 127.877459 127.872343 0 70.623477-57.256028 127.878482-127.877459 127.878482-70.616314 0-127.873366-57.255005-127.873366-127.878482C384.024815 153.397948 441.281867 96.14192 511.898181 96.14192L511.898181 96.14192z"  horiz-adv-x="1024" />

    
    <glyph glyph-name="sousuo" unicode="&#58962;" d="M955.069071 31.688979 740.015134 246.741893c-3.752464 3.751441-8.841366 5.860475-14.149255 5.860475-5.306866 0-10.395768-2.108011-14.149255-5.860475l-16.692171-16.692171-38.34226 38.34226c53.03796 59.810201 85.298711 138.442072 85.298711 224.478588 0 186.774871-151.952784 338.727655-338.727655 338.727655S64.527642 679.64544 64.527642 492.87057c0-186.775894 151.952784-338.728678 338.727655-338.728678 86.36909 0 165.276231 32.510438 225.170343 85.913718l38.303374-38.303374-17.34504-17.34504c-7.812943-7.813966-7.812943-20.48352 0-28.297486l215.051891-215.052914c3.753487-3.751441 8.841366-5.860475 14.149255-5.860475 5.306866 0 10.395768 2.108011 14.149255 5.860475l62.334697 62.334697C962.883037 11.205459 962.883037 23.875013 955.069071 31.688979zM104.546078 492.87057c0 164.709319 133.9999 298.709219 298.709219 298.709219s298.709219-133.9999 298.709219-298.709219S567.964616 194.160327 403.255297 194.160327 104.546078 328.161251 104.546078 492.87057zM878.585119-16.496463 691.829691 170.258964l34.036187 34.036187 186.755428-186.755428L878.585119-16.496463z"  horiz-adv-x="1024" />

    
    <glyph glyph-name="dianhua1" unicode="&#58888;" d="M935.254 135.253c0-158.72-72.746-158.72-423.254-158.72-350.506 0-423.254 0-423.254 158.72 0 171.946 191.786 515.84 423.254 515.84 231.466 0 423.254-343.894 423.254-515.84v0 0zM512 578.347c-99.2 0-178.56-79.36-178.56-178.56s79.36-178.56 178.56-178.56c99.2 0 178.56 79.36 178.56 178.56 0 99.2-79.36 178.56-178.56 178.56v0 0zM141.654 446.079c72.746 119.040 198.4 244.694 370.346 244.694s310.826-138.88 370.346-244.694c33.066-52.906 92.586-46.294 119.040 0 19.84 33.066 72.746 330.666-489.386 330.666-562.134 0-509.226-304.214-489.386-330.666 39.68-52.906 105.814-26.454 119.040 0v0 0z"  horiz-adv-x="1024" />

    
    <glyph glyph-name="shoucang" unicode="&#59016;" d="M536.157 802.909l135.866-275.968 305.431-45.009-221.696-213.83 51.34-303.011-272.896 143.779-273.687-142.243 53.015 302.639-220.439 215.133 305.664 43.334 137.402 275.177M536.157 849.455c-17.641 0-33.745-9.961-41.658-25.74l-126.464-253.3-281.46-39.936c-17.594-2.467-32.209-14.708-37.702-31.604-5.492-16.849-0.977-35.375 11.729-47.802l202.845-197.958-48.78-278.481c-3.072-17.455 4.049-35.095 18.339-45.568 8.145-5.958 17.78-8.983 27.508-8.983 7.354 0 14.708 1.722 21.457 5.26l252.044 131.025 251.345-132.468c6.842-3.584 14.336-5.353 21.737-5.353 9.635 0 19.223 2.979 27.322 8.844 14.336 10.38 21.551 28.020 18.572 45.475l-47.244 278.761 204.009 196.794c12.753 12.335 17.408 30.813 12.009 47.709-5.399 16.896-19.968 29.231-37.516 31.837l-281.274 41.472-125.068 254.045c-7.82 15.872-23.971 25.926-41.658 25.972-0.047 0-0.093 0-0.093 0v0z"  horiz-adv-x="1071" />

    
    <glyph glyph-name="shuaxin" unicode="&#58929;" d="M698.879266 118.027c-56.825-40.33-123.34-60.55-191.357-59.625-8.99 0.095-17.93 0.575-26.767 1.35-3.597 0.345-7.19 0.95-10.84 1.395-6.94 0.945-13.88 1.895-20.622 3.22-4.195 0.805-8.292 1.875-12.385 2.845-6.642 1.575-13.232 3.175-19.727 5.125-3.095 0.97-6.14 2.095-9.237 3.145-7.44 2.52-14.882 5.135-22.122 8.21-1.647 0.675-3.245 1.445-4.845 2.2-8.487 3.77-16.827 7.71-24.92 12.16-0.397 0.195-0.698 0.37-1.098 0.57-27.367 15.21-52.385 34.205-74.357 56.405-0.348 0.355-0.7 0.75-1.048 1.15-6.842 6.915-13.332 14.18-19.525 21.725-1.298 1.62-2.547 3.34-3.845 4.985-44.697 56.61-71.662 128.245-71.662 206.162l75.805 0c1.95 0 3.845 1.047 4.848 2.895 0.997 1.827 0.85 3.997-0.253 5.62l-127.39 193.477c-0.997 1.5-2.688 2.5-4.61 2.5-1.895 0-3.592-1-4.59-2.5L0.936266 397.591c-1.075-1.647-1.25-3.795-0.25-5.645 0.997-1.845 2.897-2.895 4.845-2.895l75.807 0c0-91.605 28.212-176.525 76.117-246.734 0.6-0.97 0.997-2.02 1.648-2.995 4.992-7.195 10.485-13.805 15.83-20.6 1.947-2.57 3.845-5.21 5.892-7.74 7.84-9.635 16.18-18.675 24.72-27.54 0.847-0.87 1.597-1.745 2.395-2.52 28.767-29.16 61.277-53.73 96.682-73.35 0.9-0.585 1.797-1.13 2.795-1.655 10.188-5.545 20.675-10.56 31.312-15.3 2.645-1.15 5.192-2.425 7.887-3.57 9.09-3.8 18.427-7.145 27.817-10.335 4.443-1.53 8.84-3.08 13.335-4.475 8.237-2.475 16.63-4.515 25.065-6.57 5.645-1.325 11.19-2.745 16.932-3.845 2.342-0.495 4.59-1.22 6.937-1.595 7.992-1.43 15.982-2.225 23.972-3.22 2.895-0.325 5.742-0.82 8.587-1.15 14.385-1.42 28.665-2.375 42.947-2.375 87.447 0 172.737 27.075 245.902 78.98 23.32 16.58 29.01 49.105 12.675 72.755C754.419266 128.887 722.199266 134.607 698.879266 118.027M941.484266 389.049c-0.045 91.335-28.065 176.075-75.755 246.137-0.705 1.2-1.195 2.422-1.95 3.52-5.945 8.565-12.39 16.555-18.825 24.57-0.75 0.975-1.45 1.997-2.245 2.945-43.65 53.605-98.435 95.027-160.555 122.095-1.7 0.75-3.4 1.597-5.1 2.347-9.935 4.117-20.065 7.762-30.255 11.235-3.695 1.223-7.345 2.572-11.09 3.695-8.885 2.722-17.92 4.942-27.015 7.065-5.04 1.175-10.04 2.472-15.125 3.472-2.555 0.5-4.895 1.247-7.395 1.695-6.79 1.202-13.635 1.728-20.425 2.6-4.7 0.597-9.345 1.347-14.09 1.847-11.43 1.072-22.77 1.522-34.105 1.722-2.045 0-4.095 0.325-6.142 0.325-0.348 0-0.7-0.1-1.095-0.125-87.292-0.075-172.437-26.765-245.499-78.6-23.37-16.527-29.062-49.11-12.73-72.755 16.327-23.645 48.587-29.39 71.91-12.81 56.43 40.025 122.297 60.275 189.812 59.672 9.74-0.072 19.28-0.548 28.715-1.445 2.95-0.348 5.795-0.775 8.69-1.15 7.795-0.95 15.485-2.072 23.07-3.595 3.35-0.647 6.69-1.525 9.935-2.272 7.445-1.695 14.895-3.52 22.185-5.742 2.29-0.747 4.54-1.572 6.83-2.345 8.34-2.75 16.485-5.717 24.52-9.09 0.81-0.348 1.655-0.772 2.45-1.097 48.09-20.95 90.29-53.207 123.205-93.53 0.19-0.253 0.395-0.575 0.59-0.8 46.345-57.102 74.26-130.107 74.26-209.579l-75.81 0c-1.94 0-3.845-1.048-4.84-2.895-1-1.845-0.855-3.997 0.255-5.645l127.43-193.454c0.96-1.495 2.66-2.465 4.6-2.465 1.895 0 3.595 0.97 4.595 2.465l127.345 193.454c1.095 1.648 1.245 3.8 0.25 5.645-1.005 1.847-2.895 2.895-4.85 2.895l-75.75 0L941.485266 389.049z"  horiz-adv-x="1025" />

    
    <glyph glyph-name="liebiao11" unicode="&#58958;" d="M485.157888 460.255232c0-31.929344-26.124288-58.053632-58.053632-58.053632L220.770304 402.2016c-31.929344 0-58.053632 26.124288-58.053632 58.053632L162.716672 675.373056c0 31.929344 26.124288 58.053632 58.053632 58.053632l206.334976 0c31.929344 0 58.053632-26.124288 58.053632-58.053632L485.158912 460.255232zM485.157888 91.93472c0-31.930368-26.124288-58.053632-58.053632-58.053632L220.770304 33.881088c-31.929344 0-58.053632 26.124288-58.053632 58.053632L162.716672 307.047424c0 31.930368 26.124288 58.053632 58.053632 58.053632l206.334976 0c31.929344 0 58.053632-26.124288 58.053632-58.053632L485.158912 91.93472zM862.2592 460.255232c0-31.929344-26.124288-58.053632-58.053632-58.053632l-206.34624 0c-31.930368 0-58.053632 26.124288-58.053632 58.053632L539.805696 675.373056c0 31.929344 26.124288 58.053632 58.053632 58.053632l206.34624 0c31.930368 0 58.053632-26.124288 58.053632-58.053632L862.2592 460.255232zM862.261248 91.93472c0-31.930368-26.124288-58.053632-58.053632-58.053632L597.860352 33.881088c-31.930368 0-58.053632 26.124288-58.053632 58.053632L539.80672 307.047424c0 31.930368 26.124288 58.053632 58.053632 58.053632l206.347264 0c31.930368 0 58.053632-26.124288 58.053632-58.053632L862.261248 91.93472z"  horiz-adv-x="1024" />

    
    <glyph glyph-name="gouwuche" unicode="&#58896;" d="M299.060992 32.504035c-5.250706 0-10.476595 1.647419-14.942591 4.890259-7.90265 5.739969-11.776567 15.284129-10.129148 24.911015l37.311569 217.514911c0.681895 3.983824-0.644077 8.044465-3.52647 10.86895L149.735537 444.745342c-7.002124 6.8154-9.460253 16.815733-6.447863 26.102262 3.024208 9.279439 10.889041 15.921115 20.541926 17.317995l218.415437 31.739415c4.002733 0.586169 7.465386 3.095116 9.253439 6.724402l97.662192 197.90542c4.324181 8.752359 13.06354 14.189789 22.832241 14.189789 9.768701 0 18.50806-5.43743 22.832241-14.189789l97.675192-197.91251c1.789235-3.623377 5.238888-6.132324 9.254621-6.718493l218.402437-31.739415c9.652885-1.396879 17.529536-8.037374 20.554926-17.323904 3.011209-9.279439 0.553079-19.279771-6.447863-26.095171L716.225649 290.68917c-2.895393-2.825667-4.221365-6.886308-3.52647-10.863041l37.311569-217.526729c1.647419-9.626886-2.239498-19.171046-10.142148-24.905106-7.90265-5.73406-18.160613-6.473862-26.808974-1.936959L517.70806 138.158693c-3.578469 1.879051-7.850651 1.879051-11.42912 0l-195.351565-102.701357C307.169273 33.481378 303.102724 32.504035 299.060992 32.504035zM511.994091 725.544086c-4.787443 0-8.894174-2.555036-11.017856-6.840218l-97.662192-197.91251c-3.719103-7.516203-10.876041-12.723183-19.163955-13.926249l-218.415437-31.739415c-4.736626-0.688985-8.429729-3.810101-9.910516-8.352913-1.479605-4.549903-0.321448-9.253439 3.102207-12.594368l158.038815-154.05499c5.997599-5.842785 8.739359-14.266605 7.336571-22.523793l-37.311569-217.526729c-0.81071-4.717718 1.016342-9.202622 4.878442-12.015289s8.70036-3.173114 12.934724-0.939525l195.351565 102.701357c7.413387 3.899917 16.268562 3.899917 23.68195 0L719.18604 47.118087c4.247364-2.213498 9.073807-1.853051 12.934724 0.939525 3.873917 2.805577 5.702151 7.303481 4.890259 12.015289l-37.311569 217.52082c-1.415788 8.256006 1.325972 16.686917 7.336571 22.536793l158.038815 154.049081c3.423654 3.339747 4.581811 8.044465 3.102207 12.587277-1.479605 4.549903-5.186889 7.671018-9.910516 8.360004l-218.415437 31.739415c-8.302096 1.203065-15.470852 6.415954-19.163955 13.932158l-97.675192 197.90542C520.887083 722.98905 516.768535 725.544086 511.994091 725.544086z"  horiz-adv-x="1024" />

    
    <glyph glyph-name="gouwuche1" unicode="&#58898;" d="M511.385468 25.617727c-197.349977 0-357.906011 160.688394-357.906011 358.200277S314.035491 742.017099 511.385468 742.017099s357.906011-160.688394 357.906011-358.200277S708.735445 25.617727 511.385468 25.617727zM511.385468 728.239756c-189.761684 0-344.140486-154.506435-344.140486-344.422934S321.623784 39.393888 511.385468 39.393888s344.140486 154.506435 344.140486 344.422934S701.147152 728.239756 511.385468 728.239756zM504.422343 556.02888 771.318475 246.733561 760.900969 237.733026 504.704792 534.623063 262.112233 237.874841 251.452461 246.592928Z"  horiz-adv-x="1024" />

    
    <glyph glyph-name="shoucang1" unicode="&#58935;" d="M722.10963 30.90963 722.10963 30.90963c-7.300741 0-14.506667 1.801481-20.859259 5.30963l-0.18963 0.094815-169.339259 93.866667c-2.844444 1.611852-6.352593 1.611852-9.197037 0l-169.623704-93.297778c-6.352593-3.508148-13.558519-5.30963-20.859259-5.30963-9.007407 0-17.635556 2.74963-24.936296 7.964444-13.368889 9.481481-20.385185 26.074074-17.73037 42.287407l33.185185 201.860741c0.474074 2.939259-0.474074 5.973333-2.56 8.154074L181.096296 434.820741c-11.377778 11.662222-15.17037 28.539259-9.955556 43.994074 5.214815 15.454815 18.394074 26.453333 34.512593 28.918519l190.388148 28.728889c3.128889 0.474074 5.783704 2.465185 7.205926 5.30963l85.997037 181.94963c7.111111 15.075556 22.471111 24.746667 39.063704 24.746667l0.094815 0c16.687407 0 32.047407-9.860741 39.063704-24.936296l85.238519-182.423704c1.327407-2.844444 3.982222-4.835556 7.111111-5.404444l190.008889-29.297778c16.023704-2.465185 29.297778-13.558519 34.417778-29.013333 5.12-15.454815 1.232593-32.237037-10.05037-43.899259L734.814815 291.081481c-2.085926-2.180741-3.034074-5.214815-2.56-8.154074l31.478519-195.602963c0 0 0 0 0 0 1.991111-6.162963 2.465185-12.61037 1.611852-19.247407C762.500741 46.648889 743.727407 30.90963 722.10963 30.90963zM719.36 69.499259c0.853333-0.474074 1.801481-0.663704 2.654815-0.663704l0.474074 0c2.654815 0 4.93037 1.896296 5.214815 4.456296 0.094815 1.042963 0 1.991111-0.284444 2.74963l-0.663704 1.801481-35.081481 217.979259c-0.474074 2.939259 0.474074 5.973333 2.56 8.154074l152.746667 156.065185c1.327407 1.422222 1.801481 3.508148 1.232593 5.404444-0.663704 1.896296-2.275556 3.223704-4.266667 3.508148l-210.10963 32.426667c-3.128889 0.474074-5.783704 2.465185-7.111111 5.404444l-93.771852 200.722963c-0.853333 1.896296-2.74963 3.034074-4.835556 3.034074-2.085926 0-3.887407-1.232593-4.835556-3.034074L428.847407 507.259259c-1.327407-2.844444-4.077037-4.835556-7.205926-5.30963l-210.394074-31.668148c-1.991111-0.284444-3.602963-1.706667-4.266667-3.602963-0.663704-1.896296-0.18963-3.982222 1.232593-5.404444l152.367407-156.728889c2.085926-2.180741 3.034074-5.214815 2.56-8.154074l-36.314074-220.728889c-0.284444-1.991111 0.474074-3.982222 2.180741-5.214815 1.137778-0.853333 2.275556-0.948148 3.034074-0.948148 0.853333 0 1.801481 0.18963 2.56 0.663704L522.619259 173.511111c2.844444 1.611852 6.352593 1.611852 9.197037 0L719.36 69.499259z"  horiz-adv-x="1024" />

    
    <glyph glyph-name="danlieliebiao" unicode="&#59108;" d="M849.1 768 174.9 768c-25.9 0-46.9-21-46.9-46.9l0-34.2c0-25.9 21-46.9 46.9-46.9l674.2 0c25.9 0 46.9 21 46.9 46.9l0 34.2C896 747 875 768 849.1 768zM849.1 128 174.9 128c-25.9 0-46.9-21-46.9-46.9l0-34.2c0-25.9 21-46.9 46.9-46.9l674.2 0c25.9 0 46.9 21 46.9 46.9l0 34.2C896 107 875 128 849.1 128zM849.1 448 174.9 448c-25.9 0-46.9-21-46.9-46.9l0-34.2c0-25.9 21-46.9 46.9-46.9l674.2 0c25.9 0 46.9 21 46.9 46.9l0 34.2C896 427 875 448 849.1 448z"  horiz-adv-x="1024" />

    
    <glyph glyph-name="gouwuche2" unicode="&#58925;" d="M831.398957 107.186087c-47.037217 0-85.170087-38.13287-85.170087-85.170087 0-47.037217 38.13287-85.170087 85.170087-85.170087s85.170087 38.13287 85.170087 85.170087C916.569043 69.053217 878.436174 107.186087 831.398957 107.186087zM831.398957-20.569043c-23.529739 0-42.585043 19.055304-42.585043 42.585043s19.055304 42.585043 42.585043 42.585043 42.585043-19.055304 42.585043-42.585043S854.906435-20.569043 831.398957-20.569043zM384.24487 107.186087c-47.037217 0-85.170087-38.13287-85.170087-85.170087 0-47.037217 38.13287-85.170087 85.170087-85.170087 47.037217 0 85.170087 38.13287 85.170087 85.170087C469.414957 69.053217 431.282087 107.186087 384.24487 107.186087zM384.24487-20.569043c-23.529739 0-42.585043 19.055304-42.585043 42.585043s19.055304 42.585043 42.585043 42.585043 42.585043-19.055304 42.585043-42.585043S407.752348-20.569043 384.24487-20.569043zM953.165913 338.721391c0 0 48.573217 278.238609 48.573217 279.507478 0 47.037217-38.13287 85.170087-85.170087 85.170087L201.371826 703.398957 188.638609 770.31513C178.109217 805.420522 145.942261 831.154087 107.430957 831.154087l-63.888696 0C31.788522 831.154087 22.26087 821.626435 22.26087 809.872696c0-11.776 9.527652-21.303652 21.303652-21.303652l63.888696 0c20.413217 0 37.420522-14.380522 41.583304-33.52487l93.718261-531.545043c0.400696-3.027478 2.470957-11.820522 2.470957-11.820522 9.616696-33.636174 39.134609-59.169391 75.152696-61.885217l596.190609 0c11.753739 0 21.303652 9.527652 21.303652 21.281391 0 11.776-9.549913 21.303652-21.303652 21.303652L326.745043 192.378435c-19.366957 0-35.528348 13.022609-40.71513 30.72l-9.594435 54.450087 595.411478 0C910.491826 277.548522 942.770087 303.437913 953.165913 338.721391zM268.933565 320.133565 208.873739 660.813913l707.695304 0c23.529739 0 42.585043-19.055304 42.585043-42.585043 0-7.791304-46.83687-268.087652-46.83687-268.087652-5.409391-17.341217-21.348174-29.985391-40.470261-29.985391L268.933565 320.155826z"  horiz-adv-x="1024" />

    
    <glyph glyph-name="liebiao12" unicode="&#58936;" d="M485.157888 460.255232c0-31.929344-26.124288-58.053632-58.053632-58.053632L220.770304 402.2016c-31.929344 0-58.053632 26.124288-58.053632 58.053632L162.716672 675.373056c0 31.929344 26.124288 58.053632 58.053632 58.053632l206.334976 0c31.929344 0 58.053632-26.124288 58.053632-58.053632L485.158912 460.255232zM485.157888 91.93472c0-31.930368-26.124288-58.053632-58.053632-58.053632L220.770304 33.881088c-31.929344 0-58.053632 26.124288-58.053632 58.053632L162.716672 307.047424c0 31.930368 26.124288 58.053632 58.053632 58.053632l206.334976 0c31.929344 0 58.053632-26.124288 58.053632-58.053632L485.158912 91.93472zM862.2592 460.255232c0-31.929344-26.124288-58.053632-58.053632-58.053632l-206.34624 0c-31.930368 0-58.053632 26.124288-58.053632 58.053632L539.805696 675.373056c0 31.929344 26.124288 58.053632 58.053632 58.053632l206.34624 0c31.930368 0 58.053632-26.124288 58.053632-58.053632L862.2592 460.255232zM862.261248 91.93472c0-31.930368-26.124288-58.053632-58.053632-58.053632L597.860352 33.881088c-31.930368 0-58.053632 26.124288-58.053632 58.053632L539.80672 307.047424c0 31.930368 26.124288 58.053632 58.053632 58.053632l206.347264 0c31.930368 0 58.053632-26.124288 58.053632-58.053632L862.261248 91.93472z"  horiz-adv-x="1024" />

    
    <glyph glyph-name="zhuye" unicode="&#58883;" d="M1153.708949 319.150083a74.645602 74.645602 0 0 1-22.025339 53.155862L630.015176 873.974379A74.701981 74.701981 0 0 1 576.849917 895.999718a74.720774 74.720774 0 0 1-53.155862-22.015942l-501.677831-501.677831A74.720774 74.720774 0 0 1 0.000282 319.150083c0-20.080268 7.827264-38.957788 22.025339-53.165259l109.722645 109.722645v-428.535664c0-41.447854 33.723951-75.171805 75.171804-75.171805h739.878487c41.447854 0 75.171805 33.723951 75.171804 75.171805V375.707469l109.722645-109.722645a74.701981 74.701981 0 0 1 22.015943 53.165259z m-516.035646-371.978278H516.026531V131.042038a60.889162 60.889162 0 0 0 60.823386 60.823387 60.889162 60.889162 0 0 0 60.823386-60.823387v-183.870233z m309.115857 0H712.845108V131.042038c0 74.983875-61.011316 135.995191-135.995191 135.995191s-135.995191-61.011316-135.995191-135.995191v-183.870233H206.92007V450.879274L576.849917 820.827914l369.939243-369.939244v-503.716865z"  horiz-adv-x="1153" />

    
    <glyph glyph-name="liebiao2" unicode="&#58922;" d="M448 352H96c-19.2 0-32-12.8-32-32v-352c0-19.2 12.8-32 32-32h352c19.2 0 32 12.8 32 32V320c0 19.2-12.8 32-32 32z m0 480H96c-19.2 0-32-12.8-32-32v-352c0-19.2 12.8-32 32-32h352c19.2 0 32 12.8 32 32V800c0 19.2-12.8 32-32 32z m480 0H576c-19.2 0-32-12.8-32-32v-352c0-19.2 12.8-32 32-32h352c19.2 0 32 12.8 32 32V800c0 19.2-12.8 32-32 32z m0-480H576c-19.2 0-32-12.8-32-32v-352c0-19.2 12.8-32 32-32h352c19.2 0 32 12.8 32 32V320c0 19.2-12.8 32-32 32z"  horiz-adv-x="1024" />

    
    <glyph glyph-name="shoucang2" unicode="&#58923;" d="M512-30.5c-4.9 0-9.9 1.9-13.6 5.6L140.1 333.3c-106.3 106.3-106.3 279.2 0 385.5C242 820.7 405 824.9 512 731.5c107 93.4 270 89.1 371.9-12.7 106.3-106.3 106.3-279.2 0-385.5L525.6-24.9c-3.7-3.8-8.7-5.6-13.6-5.6zM332.9 760c-59.9 0-119.9-22.8-165.5-68.4-91.3-91.3-91.3-239.7 0-331L512 16l344.6 344.6c91.3 91.3 91.3 239.7 0 331s-239.7 91.3-331 0c-7.5-7.5-19.7-7.5-27.2 0-45.6 45.6-105.6 68.4-165.5 68.4z"  horiz-adv-x="1024" />

    
    <glyph glyph-name="dianhua2" unicode="&#59052;" d="M71.591 534.448c15.099-31.549 30.211-63.1 45.309-94.649 7.037-13.503 20.346-17.023 37.955-13.654 43.911 11.729 87.836 23.443 131.748 35.174 19.098 6.857 27.008 17.473 27.083 30.677-0.316 24.376-0.647 48.766-0.962 73.144 117.551 55.985 281.479 55.985 399.045 0-0.329-24.378-0.647-48.768-0.976-73.144 0.074-13.204 7.984-23.82 27.083-30.677 43.925-11.731 87.836-23.445 131.746-35.174 17.61-3.369 30.918 0.151 37.97 13.654 15.099 31.549 30.197 63.1 45.294 94.649 13.82 27.655 7.324 37.941-12.09 49.61-286.532 163.417-570.583 163.417-857.114 0-19.414-11.669-25.925-21.955-12.091-49.61z m304.217-0.963c45.805 14.647 92.618 22.256 140.514 22.196 47.91 0.06 94.693-7.548 140.499-22.196v-73.851c2.256-27.43 17.204-40.918 40.587-45.114 38.106-7.519 76.212-15.068 114.333-22.587 24.031-5.263 38.768-17.88 37.459-43.218v-211.418H183.444V348.715c-1.324 25.339 13.428 37.955 37.459 43.218 38.106 7.519 76.212 15.068 114.333 22.587 23.383 4.196 38.317 17.684 40.573 45.114l-0.001 73.851z m142.184-82.032c37.595 0 71.624-15.233 96.256-39.88 24.648-24.632 39.881-58.663 39.881-96.258 0-22.587-5.503-43.88-15.249-62.633l-54.001 26.032c5.955 10.856 9.353 23.338 9.353 36.601 0 21.053-8.542 40.122-22.331 53.927-13.79 13.774-32.858 22.316-53.91 22.316-21.053 0-40.106-8.542-53.896-22.316-13.805-13.805-22.331-32.873-22.331-53.927s8.527-40.106 22.331-53.896c13.79-13.79 32.843-22.331 53.896-22.331 17.984 0 34.512 6.226 47.548 16.632l42.738-42.271c-24.014-21.309-55.639-34.256-90.286-34.256-37.581 0-71.611 15.248-96.243 39.88-24.633 24.632-39.881 58.663-39.881 96.243 0 37.595 15.248 71.626 39.881 96.258 24.633 24.646 58.663 39.879 96.244 39.879z m287.974-328.758h-80.813v-58.633h57.039c7.94 19.549 15.85 39.099 23.774 58.633z m-579.304 0h80.828v-58.633h-57.053c-7.925 19.549-15.849 39.099-23.775 58.633z"  horiz-adv-x="1024" />

    
    <glyph glyph-name="biyan" unicode="&#59005;" d="M1013.628587 593.066667c-10.666667 6.4-23.466667 2.133333-29.866667-8.533334-23.466667-38.4-53.333333-74.666667-87.466667-106.666666l-44.8-34.133334c-12.8-8.533333-27.733333-17.066667-44.8-27.733333l-51.2-25.6c-21.333333-8.533333-44.8-17.066667-70.4-25.6l-53.333333-12.8c-29.866667-6.4-61.866667-10.666667-91.733333-10.666667h-55.466667c-29.866667 0-59.733333 4.266667-93.866667 10.666667l-53.333333 10.666667c-27.733333 8.533333-51.2 14.933333-70.4 23.466666l-51.2 25.6c-19.2 10.666667-32 19.2-44.8 27.733334l-42.666667 36.266666c-36.266667 32-64 70.4-85.333333 110.933334-6.4 10.666667-19.2 14.933333-29.866667 8.533333-10.666667-6.4-14.933333-19.2-8.533333-29.866667 19.2-38.4 46.933333-72.533333 76.8-106.666666L4.56192 384c-6.4-8.533333-6.4-23.466667 2.133333-29.866667 8.533333-8.533333 23.466667-6.4 29.866667 2.133334l74.666667 72.533333 32-25.6c14.933333-10.666667 29.866667-19.2 51.2-32l27.733333-12.8L151.76192 256c-4.266667-10.666667 0-23.466667 10.666667-29.866667 10.666667-4.266667 23.466667 0 27.733333 10.666667l70.4 102.4c19.2-6.4 40.533333-14.933333 66.133333-21.333333l55.466667-12.8-12.8-113.066667c-2.133333-12.8 6.4-23.466667 19.2-23.466667 10.666667-2.133333 21.333333 6.4 23.466667 19.2l12.8 110.933334c21.333333-2.133333 40.533333-4.266667 59.733333-4.266667h57.6c14.933333 0 27.733333 2.133333 42.666667 4.266667l12.8-110.933334c2.133333-12.8 12.8-21.333333 23.466666-19.2 10.666667 2.133333 19.2 12.8 19.2 23.466667l-12.8 113.066667c4.266667 0 10.666667 2.133333 14.933334 2.133333l55.466666 14.933333c17.066667 4.266667 36.266667 10.666667 51.2 17.066667l64-104.533333c4.266667-10.666667 17.066667-17.066667 27.733334-12.8 10.666667 4.266667 17.066667 17.066667 10.666666 27.733333l-64 104.533333 38.4 19.2c19.2 10.666667 34.133333 21.333333 49.066667 29.866667l25.6 21.333333 74.666667-72.533333c6.4-8.533333 21.333333-10.666667 29.866666-2.133333 8.533333 8.533333 10.666667 21.333333 2.133334 29.866666l-74.666667 72.533334c34.133333 32 61.866667 68.266667 85.333333 104.533333 8.533333 17.066667 6.4 29.866667-4.266666 36.266667z"  horiz-adv-x="1024" />

    
    <glyph glyph-name="zuo" unicode="&#58890;" d="M512-128C229.248-128 0 101.248 0 384S229.248 896 512 896s512-229.248 512-512-229.248-512-512-512z m0 938.666667C276.352 810.666667 85.333333 619.648 85.333333 384s191.018667-426.666667 426.666667-426.666667 426.666667 191.018667 426.666667 426.666667S747.648 810.666667 512 810.666667z m243.754667-457.088c-0.810667-0.853333-1.92-1.152-2.816-1.877334l-296.789334-296.789333a42.325333 42.325333 0 1 0-59.904 59.904L665.429333 384 396.245333 653.184a42.325333 42.325333 0 1 0 59.904 59.904l296.789334-296.789333c0.896-0.725333 2.005333-1.024 2.816-1.877334a41.984 41.984 0 0 0 12.330666-30.421333 41.984 41.984 0 0 0-12.330666-30.421333z"  horiz-adv-x="1024" />

    
    <glyph glyph-name="youyi" unicode="&#59121;" d="M506.976918 213.203716a26.861398 26.861398 0 0 0-18.802978 7.226996 25.326461 25.326461 0 0 0-7.482819 18.227377c0 6.587438 2.494273 13.238832 7.482819 18.099466l103.928029 100.7942h-565.176615A26.285797 26.285797 0 0 0 0 383.645685c0 14.517946 11.895762 26.09393 26.925354 26.09393h564.537058l-103.92803 100.666289a25.262506 25.262506 0 0 0-7.482818 18.099466c0 6.71535 2.494273 13.366744 7.482818 18.227378a26.861398 26.861398 0 0 0 18.802979 7.226995c6.843261 0 13.814434-2.366361 18.802979-7.226995l149.528452-144.923641a25.582284 25.582284 0 0 0 7.482818-18.227377 25.326461 25.326461 0 0 0-7.482818-18.227378l-149.528452-145.051552a27.692823 27.692823 0 0 0-18.163422-7.099084M502.372107-127.936044c-223.844987 0-422.299558 139.743228-494.185776 347.791154a29.22776 29.22776 0 0 0-2.494273 11.256205c0 16.244751 13.366744 29.355671 29.867317 29.355672 12.727186 0 24.175259-8.122375 28.012601-19.378581 62.932419-186.111118 239.130402-310.88871 438.22453-310.888709 254.479773 0 461.696275 203.507071 461.696275 453.190166s-207.216503 453.190166-461.696275 453.190165c-204.72223 0-386.676227-134.818638-443.916588-327.773017a29.22776 29.22776 0 0 0-28.012601-19.37858 29.611494 29.611494 0 0 0-29.867317 29.355671c0 2.494273 0.639557 4.348988 0.639557 6.26766V525.627363c0 0.639557 0 1.854716 0.639557 2.494273a514.843471 514.843471 0 0 0 184.512225 262.218414A521.430909 521.430909 0 0 0 501.796506 895.291371c139.295538 0 270.340789-53.722797 368.896539-150.423832a503.843089 503.843089 0 0 0 152.662281-361.477676c1.215159-281.596994-232.862743-511.325907-520.983219-511.325907"  horiz-adv-x="1024" />

    
    <glyph glyph-name="icon-eye-close" unicode="&#58892;" d="M928.312889 628.522667C792.078222 459.093333 655.957333 376.888889 519.651556 376.888889c-136.832 0-278.584889 82.773333-425.031112 252.913778a49.777778 49.777778 0 1 1-75.463111-64.938667C182.826667 374.712889 349.596444 277.333333 519.637333 277.333333c170.609778 0 332.785778 97.934222 486.257778 288.810667a49.777778 49.777778 0 0 1-77.582222 62.378667zM162.730667 426.552889l-94.819556-109.710222a35.555556 35.555556 0 1 1 53.802667-46.506667l94.819555 109.710222a35.555556 35.555556 0 0 1-53.802666 46.506667zM354.247111 297.813333l-37.930667-151.708444a35.555556 35.555556 0 0 1 68.992-17.251556l37.930667 151.708445a35.555556 35.555556 0 0 1-68.992 17.251555zM629.575111 291.612444l53.333333-151.694222a35.555556 35.555556 0 0 1 67.072 23.580445l-53.333333 151.694222a35.555556 35.555556 0 0 1-67.072-23.580445zM823.111111 420.835556l109.710222-109.724445a35.555556 35.555556 0 0 1 50.289778 50.289778l-109.710222 109.710222a35.555556 35.555556 0 0 1-50.289778-50.289778z"  horiz-adv-x="1024" />

    
    <glyph glyph-name="icon--" unicode="&#59160;" d="M522.24 499.2c-5.12 5.12-15.36 7.68-23.04 7.68-7.68 2.56-15.36 0-23.04-7.68L281.6 304.64c-10.24-10.24-10.24-25.6 0-35.84 10.24-10.24 25.6-10.24 35.84 0l181.76 181.76 181.76-181.76c10.24-10.24 25.6-10.24 35.84 0 10.24 10.24 10.24 25.6 0 35.84l-194.56 194.56zM499.2 793.6c-225.28 0-409.6-184.32-409.6-409.6s184.32-409.6 409.6-409.6 409.6 184.32 409.6 409.6-184.32 409.6-409.6 409.6z m0-768c-197.12 0-358.4 161.28-358.4 358.4s161.28 358.4 358.4 358.4 358.4-161.28 358.4-358.4-161.28-358.4-358.4-358.4z"  horiz-adv-x="1024" />

    
    <glyph glyph-name="shoucang3" unicode="&#58985;" d="M732.6 472.2l-127.4 18.5-57 115.5c-14.8 30-57.6 30-72.4 0L423.4 500c88.7-94.8 153.2-213.8 173.7-340.9L626 144c29.6-15.6 64.2 9.6 58.6 42.6l-21.8 126.9 92.2 89.9c24 23.3 10.8 64-22.4 68.8zM379.2 126.8c-10.9 0-21.8 3.4-31 10.2-16.4 11.9-24.5 31.7-21 51.7l20.7 120.4-87.5 85.3c-14.5 14.2-19.6 34.9-13.4 54.2 6.3 19.3 22.6 33.1 42.7 36l120.9 17.6 54.1 109.6c9 18.2 27.1 29.5 47.4 29.5 20.3 0 38.4-11.3 47.4-29.5l54.1-109.6 120.9-17.6c20.1-2.9 36.4-16.7 42.7-36s1.1-40.1-13.4-54.2l-87.5-85.3L697 188.7c3.4-20-4.6-39.8-21-51.7-16.4-11.9-37.7-13.5-55.7-4L512 189.8l-108.2-56.9c-7.8-4.1-16.2-6.1-24.6-6.1zM512 218l119.8-63c9.6-5 20.6-4.3 29.4 2.1s12.9 16.6 11.1 27.3l-22.9 133.4 96.9 94.5c7.8 7.6 10.4 18.3 7.1 28.6-3.4 10.3-11.8 17.4-22.5 19L597 479.4l-60 121.3c-4.8 9.7-14.1 15.5-25 15.5s-20.2-5.8-25-15.5l-59.9-121.4-133.9-19.5c-10.7-1.6-19.2-8.7-22.5-19s-0.7-21 7.1-28.6l96.9-94.5-22.9-133.4c-1.8-10.7 2.3-20.9 11.1-27.3s19.8-7.2 29.4-2.1L512 218z"  horiz-adv-x="1024" />

    
    <glyph glyph-name="shangchuan" unicode="&#58917;" d="M819.5 112.3h-51.3c-16.6 0-30-13.4-30-30s13.4-30 30-30h51.3c16.6 0 30 13.4 30 30s-13.5 30-30 30zM665.7 112.3H143.9c-16.6 0-30-13.4-30-30s13.4-30 30-30h521.8c16.6 0 30 13.4 30 30s-13.5 30-30 30zM834.7-44.7H230.1c-23.9 0-43.5 19.6-43.5 43.5s19.6 43.5 43.5 43.5h604.6c23.9 0 43.5-19.6 43.5-43.5s-19.5-43.5-43.5-43.5zM791.8 486.4H665.7c-16.6 0-30-13.4-30-30s13.4-30 30-30h126.2c41 0 74.4-33.4 74.4-74.4v-281.3c0-41-33.4-74.4-74.4-74.4H232.4c-41 0-74.4 33.4-74.4 74.4V352c0 41 33.4 74.4 74.4 74.4h139.3c16.6 0 30 13.4 30 30s-13.4 30-30 30H232.4C158.3 486.4 98 426.1 98 352v-281.3c0-74.1 60.3-134.4 134.4-134.4h559.4c74.1 0 134.4 60.3 134.4 134.4V352c0 74.1-60.3 134.4-134.4 134.4zM362.3 623.9l118.8 118.8v-550.9c0-16.6 13.4-30 30-30s30 13.4 30 30V742.7l118.8-118.8c5.9-5.9 13.5-8.8 21.2-8.8s15.4 2.9 21.2 8.8c11.7 11.7 11.7 30.7 0 42.4L552.6 816c-11.1 11.1-25.9 17.2-41.5 17.2-15.7 0-30.4-6.1-41.5-17.2L319.9 666.3c-11.7-11.7-11.7-30.7 0-42.4s30.7-11.7 42.4 0z"  horiz-adv-x="1024" />

    
    <glyph glyph-name="dianhua3" unicode="&#58889;" d="M217.622 274.551c-28.096 0-55.079 7.097-78.031 20.525-24.957 14.6-44 35.954-55.069 61.754-15.311 35.685-13.624 77.262 4.627 114.072 17.233 34.756 47.426 62.78 85.018 78.909 22.069 9.469 45.122 14.27 68.521 14.27 28.096 0 55.079-7.098 78.032-20.526 24.958-14.601 44-35.955 55.07-61.755 15.311-35.685 13.624-77.263-4.627-114.071-17.233-34.757-47.427-62.78-85.019-78.908-22.069-9.469-45.123-14.27-68.522-14.27zM732.893 484.918c-44.97 0-87.384 12.283-122.655 35.521-37.68 24.825-63.877 59.897-75.76 101.424-7.541 26.355-8.805 53.58-3.757 80.92 4.752 25.732 14.874 50.367 30.085 73.222 30.158 45.313 77.352 79.003 132.89 94.864 22.47 6.417 45.489 9.671 68.419 9.671 44.971 0 87.384-12.283 122.655-35.521 37.68-24.826 63.877-59.898 75.76-101.425 7.54-26.353 8.804-53.578 3.756-80.917-4.751-25.731-14.873-50.367-30.084-73.222-30.158-45.314-77.352-79.004-132.89-94.865-22.47-6.418-45.489-9.672-68.419-9.672zM376.702-110.302c-66.661 0-120.893 54.284-120.893 121.008V167.295c0 63.885 49.718 116.366 112.458 120.716v27.058c0 48.546 39.467 88.041 87.979 88.041h9.814c48.512 0 87.98-39.495 87.98-88.041v-26.767h10.878v26.767c0 48.546 39.467 88.041 87.98 88.041h9.815c48.511 0 87.979-39.495 87.979-88.041v-27.063c62.706-4.384 112.383-56.85 112.383-120.711v-156.589c0-66.724-54.233-121.008-120.893-121.008h-365.48zM303.015 32.674c-32.544 0.003-57.195 17.162-74.306 35.642-17.374 2.388-34.265 9.034-49.525 19.567-22.699 15.669-37.773 37.892-43.679 63.454-14.756 11.469-29.264 29.492-39.631 57.747-4.909 13.381-7.034 27.134-6.37 40.754-5.994 9.941-10.131 21.045-12.232 32.998-5.081 28.905 0.978 56.552 17.522 79.952 13.464 19.044 30.604 30.216 36.236 33.887l36.286 23.652 51.366-64.169c21.878-4.389 39.623-18.271 48.063-38.385 4.659-11.102 6.688-21.328 7.062-30.48l142.129-177.556-25.763-30.037-0.429-0.508c-32.384-38.445-65.033-46.517-86.721-46.517l-0.008-0.001z m-15.454 117.534zM742.181-62.551H376.702c-40.395 0-73.142 32.798-73.142 73.256v156.59c0 40.458 32.747 73.256 73.142 73.256h39.316v74.517c0 22.251 18.011 40.29 40.228 40.29h9.814c22.217 0 40.228-18.039 40.228-40.29v-74.517h106.381v74.517c0 22.251 18.011 40.29 40.228 40.29h9.815c22.217 0 40.228-18.039 40.228-40.29v-74.517h39.241c40.395 0 73.142-32.798 73.142-73.256v-156.589c0-40.459-32.747-73.257-73.142-73.257zM181.807 370.249c-43.723 0-77.149 17.923-91.708 49.174-15.54 33.354-6.61 73.609 0.097 94.635 5.227 16.389 20.796 56.741 52.393 77.416 4.392 2.874 12.186 8.46 22.054 15.532 44.641 31.994 137.532 98.569 251.376 153.91C543.045 822.671 678.858 867.339 684.578 869.21l3.977 1.301 4.143 0.589a125.716 125.716 0 0 0 17.647 1.225c58.528 0 130.672-41.006 139.618-95.884 5.301-32.515-13.954-61.808-30.942-87.653-2.379-3.618-5.348-8.135-7.95-12.304a47.912 47.912 0 0 0 1.77-19.537c-0.946-8.189-5.011-23.636-21.607-35.071-2.384-1.643-5.006-3.212-8.252-4.936-4.424-2.352-10.197-5.075-17.155-8.095-10.404-4.516-28.445-11.858-55.305-21.194-40.49-14.074-106.581-34.573-191.497-52.315-135.486-28.306-253.454-140.412-254.63-141.541l-5.722-5.495-7.191-3.349c-20.06-9.343-45.455-14.702-69.675-14.702zM168.734 551.516c27.605 18.063 132.145 100.334 268.161 166.455C562.452 779.01 699.426 823.827 699.426 823.827c43.096 6.134 98.764-26.586 103.407-55.067 5.098-31.272-66.321-92.709-37.58-106.098 4.681-2.181-98.345-47.646-255.996-80.583C358.786 550.64 231.32 428.237 231.32 428.237c-28.742-13.387-84.558-17.367-97.937 11.352-13.38 28.719 7.746 93.865 35.351 111.927zM912.48 730.147C890.005 808.695 796.963 851.003 704.667 824.644 612.37 798.285 555.769 713.241 578.245 634.69c22.476-78.548 115.517-120.855 207.813-94.496 92.297 26.359 148.897 111.405 126.422 189.953z m-721.626-224.53c-56.196-24.111-85.114-82.434-64.591-130.27 20.523-47.833 82.716-67.065 138.912-42.954 56.195 24.109 85.114 82.432 64.591 130.268-20.523 47.834-82.716 67.068-138.912 42.956zM747.584 718.441c0 11.192-8.692 20.265-19.414 20.265-10.722 0-19.414-9.073-19.414-20.265s8.692-20.264 19.414-20.264c10.723 0 19.414 9.072 19.414 20.264z m-71.88-60.316c-10.92 0-19.772-8.973-19.772-20.041s8.852-20.041 19.772-20.041c10.92 0 19.772 8.972 19.772 20.041s-8.852 20.041-19.772 20.041z m143.433 40.052c-10.854 0-19.652-8.966-19.652-20.026s8.799-20.026 19.652-20.026c10.854 0 19.653 8.966 19.653 20.026-0.001 11.06-8.8 20.026-19.653 20.026z m-65.017-80.133c-10.796 0-19.548-9.066-19.548-20.249 0-11.184 8.752-20.25 19.548-20.25 10.796 0 19.548 9.066 19.548 20.25 0.001 11.183-8.751 20.249-19.548 20.249zM217.11 462.211c-6.724-0.858-11.48-7.014-10.623-13.75 0.858-6.736 7.005-11.501 13.729-10.64 6.725 0.858 11.481 7.014 10.624 13.75-0.858 6.736-7.005 11.501-13.73 10.64z m-26.258-52.928c-6.725-0.86-11.481-7.016-10.624-13.752 0.858-6.733 7.005-11.498 13.729-10.64 6.724 0.86 11.481 7.016 10.623 13.752-0.857 6.736-7.003 11.499-13.728 10.64z m86.313 35.812c-6.795-0.867-11.608-7.03-10.75-13.766 0.858-6.735 7.061-11.491 13.856-10.624 6.794 0.869 11.608 7.032 10.75 13.768-0.858 6.735-7.061 11.491-13.856 10.622z m-34.502-53.981c-6.725-0.858-11.481-7.017-10.624-13.75 0.858-6.736 7.004-11.501 13.73-10.64 6.724 0.859 11.48 7.014 10.623 13.75-0.858 6.736-7.005 11.498-13.729 10.64zM558.785 202.698c65.708 0 118.975-53.194 118.975-118.811s-53.267-118.811-118.975-118.811S439.81 18.27 439.81 83.887c0 65.618 53.267 118.811 118.975 118.811zM562.762 176.644c-9.024 0-16.34-7.376-16.34-16.474 0-9.098 7.316-16.474 16.34-16.474 9.024 0 16.34 7.376 16.34 16.474 0 9.098-7.316 16.474-16.34 16.474z m-8.237-155.878c-9.024 0-16.34-7.329-16.34-16.37 0-9.04 7.315-16.369 16.34-16.369 9.024 0 16.34 7.329 16.34 16.369 0 9.041-7.316 16.37-16.34 16.37z m82.042 73.925c-9.024 0-16.34-7.376-16.34-16.474 0-9.098 7.316-16.474 16.34-16.474 9.024 0 16.34 7.376 16.34 16.474 0 9.098-7.315 16.474-16.34 16.474z m-139.299-16.474c0 9.098-7.369 16.474-16.459 16.474s-16.459-7.376-16.459-16.474c0-9.098 7.369-16.474 16.459-16.474s16.459 7.375 16.459 16.474z m106.069-42.207c-6.22-6.581-5.923-16.956 0.662-23.173 6.586-6.216 16.967-5.92 23.187 0.664 6.22 6.581 5.923 16.955-0.662 23.171-6.586 6.215-16.967 5.919-23.187-0.662z m-89.431 92.612c6.22 6.581 5.923 16.955-0.662 23.173-6.585 6.216-16.966 5.92-23.186-0.662-6.22-6.583-5.923-16.957 0.662-23.173 6.585-6.215 16.966-5.919 23.186 0.662z m-21.659-85.752c-6.398-6.408-6.385-16.787 0.028-23.182 6.413-6.393 16.798-6.379 23.196 0.029 6.398 6.41 6.385 16.789-0.028 23.182-6.413 6.395-16.799 6.381-23.196-0.029z m141.47 78.899c6.397 6.411 6.385 16.79-0.028 23.182-6.414 6.395-16.798 6.382-23.196-0.029-6.398-6.408-6.385-16.787 0.028-23.182 6.413-6.392 16.798-6.379 23.196 0.029zM558.785 128.982c24.864 0 45.02-20.19 45.02-45.095 0-24.905-20.156-45.095-45.02-45.095-24.864 0-45.02 20.19-45.02 45.095 0 24.906 20.156 45.095 45.02 45.095z"  horiz-adv-x="1024" />

    
    <glyph glyph-name="-wenju" unicode="&#58893;" d="M329.5 233.5c36.8-1.9 74.4 1.8 111.9 11.8 37.6 10.1 72.2 25.8 103.1 45.9l3.6 2.7-96.7 360.8c-8 30-38.9 47.8-68.9 39.8L268 663.9c-30-8-47.8-38.9-39.8-68.9L325 234.2l4.5-0.7zM426.4 654.8c-8 30-38.9 47.8-68.9 39.8l-4.3-1.2c17.1-5.9 31-19.9 36-38.6L485.9 294l-3.6-2.7c-30.9-20.2-65.5-35.8-103.1-45.9-24.9-6.7-49.9-10.5-74.6-11.8 36.7-1.9 74.4 1.8 111.8 11.8 37.6 10.1 72.2 25.8 103.1 45.9l3.6 2.7-96.7 360.8zM247.2 540.7c36.8-1.9 74.4 1.8 111.9 11.8 37.6 10.1 72.2 25.8 103.1 45.9l3.6 2.7-14.4 53.7c-8 30-38.9 47.8-68.9 39.8L268 663.9c-30-8-47.8-38.9-39.8-68.9l14.4-53.7 4.6-0.6zM426.4 654.8c-8 30-38.9 47.8-68.9 39.8l-3.1-0.8c17.5-5.7 31.8-19.8 37-38.9l14.4-53.7-3.6-2.7c-30.9-20.2-65.5-35.8-103.1-45.9-25.2-6.8-50.5-10.6-75.6-11.9 36.3-1.8 73.6 1.9 110.6 11.9 37.6 10.1 72.2 25.8 103.1 45.9l3.6 2.7-14.4 53.6zM304.5 233.2L448 139.1 519.6 291c-30.9-20.2-65.5-35.8-103.1-45.9-37.5-10.1-75.2-13.8-112-11.9zM577.4 16.9h-184c-4.4 0-8 3.6-8 8s3.6 8 8 8h184c4.4 0 8-3.6 8-8 0-4.5-3.6-8-8-8zM366.7 16.9h-28c-4.4 0-8 3.6-8 8s3.6 8 8 8h28c4.4 0 8-3.6 8-8 0-4.5-3.6-8-8-8zM715.8 16.9h-98c-4.4 0-8 3.6-8 8s3.6 8 8 8h98c4.4 0 8-3.6 8-8 0-4.5-3.6-8-8-8zM311 16.9h-4c-4.4 0-8 3.6-8 8s3.6 8 8 8h4c4.4 0 8-3.6 8-8 0-4.5-3.6-8-8-8zM479-31.1h-28c-4.4 0-8 3.6-8 8s3.6 8 8 8h28c4.4 0 8-3.6 8-8s-3.6-8-8-8zM603.5-31.1h-98c-4.4 0-8 3.6-8 8s3.6 8 8 8h98c4.4 0 8-3.6 8-8s-3.6-8-8-8zM423.2-31.1h-4c-4.4 0-8 3.6-8 8s3.6 8 8 8h4c4.4 0 8-3.6 8-8s-3.5-8-8-8zM162.1 732.4c-3.7-1.2-7-3.2-9.8-5.6 3.7-1.1 6.8-4 8.1-7.9 2.1-6.4-1.4-13.4-7.8-15.5-3.3-1.1-6.7-0.7-9.6 0.8 0.1-2.3 0.6-4.7 1.3-7 4.8-14.6 20.6-22.6 35.2-17.8s22.6 20.6 17.8 35.2c-4.8 14.6-20.6 22.6-35.2 17.8zM177.6 713.3c1-2.8 1.3-5.9 0.9-9.2-1.2-9-8.7-16.2-17.8-17.1-12.6-1.2-23.2 9.3-21.9 21.9 0.9 9 7.9 16.4 16.8 17.8 3.2 0.5 6.4 0.2 9.2-0.7 2.1-0.7 4.3-0.3 5.9 1.2l0.2 0.2c3.3 3 2.2 8.5-2.1 9.9-3.9 1.3-8 1.9-12.4 1.6-15.9-1.1-28.7-14-29.7-29.9-1.3-20.3 16.3-36.8 36.9-33.7 13.5 2 24.4 12.7 26.6 26.2 0.9 5.4 0.4 10.7-1.2 15.4-1.4 4.2-6.5 5.6-9.8 2.6-1.6-1.5-2.3-4-1.6-6.2zM530.1 660.4m-8 0a8 8 0 1 1 16 0 8 8 0 1 1-16 0ZM313.7 735m-8 0a8 8 0 1 1 16 0 8 8 0 1 1-16 0ZM947.3 539.6m-10 0a10 10 0 1 1 20 0 10 10 0 1 1-20 0ZM656.8 718.5h-0.1c2.4-1.4 4.1-3.9 4.5-6.9 0.7-5.2-3-10.1-8.2-10.8-4.2-0.6-8.1 1.7-9.9 5.3-0.5-1.9-0.6-4-0.3-6.1 1.2-9 9.5-15.2 18.4-14 9 1.2 15.2 9.5 14 18.4-1.2 9.1-9.4 15.4-18.4 14.1zM794.7 767c-12.2 0-22-9.8-22-22s9.8-22 22-22 22 9.8 22 22-9.9 22-22 22z m0-30c-4.4 0-8 3.6-8 8s3.6 8 8 8 8-3.6 8-8c0-4.5-3.6-8-8-8zM82.2 516.1c-9.9 0-18-8.1-18-18s8.1-18 18-18 18 8.1 18 18-8 18-18 18z m0-24.6c-3.6 0-6.5 2.9-6.5 6.5s2.9 6.5 6.5 6.5 6.5-2.9 6.5-6.5c0.1-3.6-2.9-6.5-6.5-6.5zM792.7 601.3h14c2.8 0 5 2.2 5 5s-2.2 5-5 5h-14c-2.8 0-5-2.2-5-5s2.2-5 5-5zM820.3 584.9v14c0 2.8-2.2 5-5 5s-5-2.2-5-5v-13c3-1.3 5.9-2.7 8.8-4.1 0.8 0.8 1.2 1.9 1.2 3.1zM815.3 579.9c1.6 0 2.9 0.7 3.8 1.8-2.9 1.4-5.9 2.8-8.8 4.1v-1c0-2.7 2.2-4.9 5-4.9zM822.7 602.5h14c2.8 0 5 2.2 5 5s-2.2 5-5 5h-14c-2.8 0-5-2.2-5-5s2.2-5 5-5zM814.1 609.9c2.8 0 5 2.2 5 5v14c0 2.8-2.2 5-5 5s-5-2.2-5-5v-14c0-2.8 2.2-5 5-5zM878.9 679.6m-4.8 0a4.8 4.8 0 1 1 9.6 0 4.8 4.8 0 1 1-9.6 0ZM915.2 682.1m-4.8 0a4.8 4.8 0 1 1 9.6 0 4.8 4.8 0 1 1-9.6 0ZM895.4 696m-4.8 0a4.8 4.8 0 1 1 9.6 0 4.8 4.8 0 1 1-9.6 0ZM897.1 663m-4.8 0a4.8 4.8 0 1 1 9.6 0 4.8 4.8 0 1 1-9.6 0ZM875 706.1l14.8-14.8c1.6-1.6 1.6-4.1 0-5.7-1.6-1.6-4.1-1.6-5.7 0l-14.8 14.8c-1.6 1.6-1.6 4.1 0 5.7 1.5 1.6 4.1 1.6 5.7 0zM869.3 658.7l14.8 14.8c1.6 1.6 4.1 1.6 5.7 0 1.6-1.6 1.6-4.1 0-5.7L875 653c-1.6-1.6-4.1-1.6-5.7 0-1.5 1.6-1.5 4.1 0 5.7zM918.4 653.9l-14.8 14.8c-1.6 1.6-1.6 4.1 0 5.7 1.6 1.6 4.1 1.6 5.7 0l14.8-14.8c1.6-1.6 1.6-4.1 0-5.7-1.6-1.6-4.1-1.6-5.7 0zM922.4 702.1l-14.8-14.8c-1.6-1.6-4.1-1.6-5.7 0-1.6 1.6-1.6 4.1 0 5.7l14.8 14.8c1.6 1.6 4.1 1.6 5.7 0 1.6-1.6 1.6-4.1 0-5.7zM467.8 740.1l-7.1 7.1c-1.6 1.6-1.6 4.1 0 5.7 1.6 1.6 4.1 1.6 5.7 0l7.1-7.1c1.6-1.6 1.6-4.1 0-5.7-1.6-1.5-4.1-1.5-5.7 0zM466.6 728h-10c-2.2 0-4 1.8-4 4s1.8 4 4 4h10c2.2 0 4-1.8 4-4s-1.8-4-4-4zM474.3 718.6l-7.1-7.1c-1.6-1.6-4.1-1.6-5.7 0-1.6 1.6-1.6 4.1 0 5.7l7.1 7.1c1.6 1.6 4.1 1.6 5.7 0 1.5-1.6 1.5-4.2 0-5.7zM486.4 717.3v-10c0-2.2-1.8-4-4-4s-4 1.8-4 4v10c0 2.2 1.8 4 4 4s4-1.8 4-4zM495.8 725l7.1-7.1c1.6-1.6 1.6-4.1 0-5.7-1.6-1.6-4.1-1.6-5.7 0l-7.1 7.1c-1.6 1.6-1.6 4.1 0 5.7 1.6 1.6 4.2 1.6 5.7 0zM497.1 737.1h10c2.2 0 4-1.8 4-4s-1.8-4-4-4h-10c-2.2 0-4 1.8-4 4s1.8 4 4 4zM489.4 746.6l7.1 7.1c1.6 1.6 4.1 1.6 5.7 0 1.6-1.6 1.6-4.1 0-5.7l-7.1-7.1c-1.6-1.6-4.1-1.6-5.7 0-1.6 1.6-1.6 4.1 0 5.7zM477.3 747.8v10c0 2.2 1.8 4 4 4s4-1.8 4-4v-10c0-2.2-1.8-4-4-4s-4 1.8-4 4zM624.7 64.8h-384c-4.4 0-8 3.6-8 8s3.6 8 8 8h384c4.4 0 8-3.6 8-8s-3.6-8-8-8zM196.9 64.8h-28c-4.4 0-8 3.6-8 8s3.6 8 8 8h28c4.4 0 8-3.6 8-8s-3.5-8-8-8zM887.3 64.8h-98c-4.4 0-8 3.6-8 8s3.6 8 8 8h98c4.4 0 8-3.6 8-8s-3.6-8-8-8zM712.5 64.8h-44c-4.4 0-8 3.6-8 8s3.6 8 8 8h44c4.4 0 8-3.6 8-8s-3.5-8-8-8zM141.2 64.8h-4c-4.4 0-8 3.6-8 8s3.6 8 8 8h4c4.4 0 8-3.6 8-8s-3.6-8-8-8zM752.1 64.8h-4c-4.4 0-8 3.6-8 8s3.6 8 8 8h4c4.4 0 8-3.6 8-8s-3.6-8-8-8zM403.5 170.2l45.3-29.7 20.8 44.2s-2.4 13.6-7.5 7.4c-6.3-7.7-27.1-3.3-33.6-13.3-6.3-9.8-25-8.6-25-8.6zM607.9 155.7l-145.8 68c-15 7-21.5 24.9-14.5 39.9l160.3 343.8c7 15 24.9 21.5 39.9 14.5l145.8-68c15-7 21.5-24.9 14.5-39.9L647.7 170.2c-7-15-24.8-21.5-39.8-14.5zM629.8 153L484 221c-15 7-21.5 24.9-14.5 39.9l160.3 343.8c7 15 24.9 21.5 39.9 14.5l145.8-68c15-7 21.5-24.9 14.5-39.9L669.7 167.5c-7-15-24.9-21.5-39.9-14.5zM790.6 553.4l-145.8 68c-9.9 4.6-21.1 3.4-29.5-2.4L748 557.1c15-7 21.5-24.9 14.5-39.9L602.1 173.4c-2.4-5.1-6-9.2-10.3-12.1l13.1-6.1c15-7 32.9-0.5 39.9 14.5l160.3 343.8c7 15 0.5 32.9-14.5 39.9zM742.1 322.9l-200.2 93.3 87.9 188.4c7 15 24.9 21.5 39.9 14.5l145.8-68c15-7 21.5-24.9 14.5-39.9l-87.9-188.3zM790.6 553.4l-145.8 68c-9.7 4.5-20.5 3.4-28.9-2l134-62.5c15-7 21.5-24.9 14.5-39.9l-82-175.8 34.8-16.2 87.9 188.4c7 15.1 0.5 33-14.5 40z"  horiz-adv-x="1024" />

    
    <glyph glyph-name="ziyuan" unicode="&#58899;" d="M197.746222 895.923846h-63.99468A97.911861 97.911861 0 0 1 32 799.931826v-63.994681A97.911861 97.911861 0 0 1 131.191755 639.945125h63.99468a97.911861 97.911861 0 0 1 101.751542 95.99202v63.994681A97.911861 97.911861 0 0 1 197.746222 895.923846z m32.637287-159.986701a32.637287 32.637287 0 0 0-33.277233-31.99734h-63.994681A32.637287 32.637287 0 0 0 95.99468 735.937145v63.994681a32.637287 32.637287 0 0 0 35.197075 31.99734h63.99468a32.637287 32.637287 0 0 0 33.277234-31.99734zM197.746222 511.955764h-63.99468A97.911861 97.911861 0 0 1 32 415.963743v-63.99468A97.911861 97.911861 0 0 1 131.191755 255.977042h63.99468a97.911861 97.911861 0 0 1 101.751542 95.992021v63.99468A97.911861 97.911861 0 0 1 197.746222 511.955764z m32.637287-159.986701a32.637287 32.637287 0 0 0-33.277233-31.997341h-63.994681A32.637287 32.637287 0 0 0 95.99468 351.969063v63.99468a32.637287 32.637287 0 0 0 35.197075 31.99734h63.99468a32.637287 32.637287 0 0 0 33.277234-31.99734zM197.746222 127.987681h-63.99468A97.911861 97.911861 0 0 1 32 31.99566v-63.99468A97.911861 97.911861 0 0 1 131.191755-127.991041h63.99468a97.911861 97.911861 0 0 1 99.191755 95.992021v63.99468A97.911861 97.911861 0 0 1 197.746222 127.987681z m33.277234-159.986701a32.637287 32.637287 0 0 0-33.277234-31.99734h-63.99468a32.637287 32.637287 0 0 0-37.756862 31.99734v63.99468a32.637287 32.637287 0 0 0 33.277234 31.997341h63.994681a32.637287 32.637287 0 0 0 33.277234-31.997341zM439.646114 799.931826h518.996859A32.637287 32.637287 0 0 1 991.920207 831.929166a32.637287 32.637287 0 0 1-33.277234 31.99734H439.646114a32.637287 32.637287 0 0 1-33.277233-31.99734 32.637287 32.637287 0 0 1 33.277233-31.99734zM958.642973 565.071348H439.646114a31.99734 31.99734 0 1 1 0-63.99468h518.996859a31.99734 31.99734 0 1 1 0 63.99468zM958.642973 266.856138H439.646114a31.99734 31.99734 0 1 1 0-63.994681h518.996859a31.99734 31.99734 0 1 1 0 63.994681zM958.642973-31.99902H439.646114a31.99734 31.99734 0 1 1 0-63.994681h518.996859a31.99734 31.99734 0 1 1 0 63.994681z"  horiz-adv-x="1024" />

    
    <glyph glyph-name="yonghu" unicode="&#58902;" d="M958.744-63H65.256c5.43 164.648 99.9 306.757 236.805 379.726A299.076 299.076 0 0 0 212 531c0 165.685 134.315 300 300 300s300-134.315 300-300a299.076 299.076 0 0 0-90.061-214.274C858.844 243.757 953.315 101.648 958.744-63zM752 531c0 132.548-107.452 240-240 240S272 663.548 272 531s107.452-240 240-240 240 107.452 240 240z m-82.542-255.384a300.157 300.157 0 0 0-314.916 0C241.3 225.114 156.782 121.818 132.269-3h759.462C867.218 121.818 782.7 225.114 669.458 275.616z"  horiz-adv-x="1024" />

    
    <glyph glyph-name="shuaxin1" unicode="&#58976;" d="M1213.62963 554.666667l-265.481482-265.481482-265.481481 265.481482h189.629629V744.296296H113.777778V896h910.222222v-341.333333h189.62963zM0 213.333333l265.481481 265.481482 265.481482-265.481482H341.333333v-189.629629h758.518519v-151.703704H189.62963v341.333333H0z"  horiz-adv-x="1213" />

    
    <glyph glyph-name="dianhua4" unicode="&#58928;" d="M1240.032446 4.43159v-22.604758c-0.51668-0.823459-1.453163-1.614626-1.501601-2.470377-1.727649-29.418478-15.887916-53.16962-34.552988-74.660287C1183.391381-119.006536 1155.587529-127.677075 1125.716955-127.677075q-488.359653-0.581265-976.751599-0.177609c-13.869634 0-27.787706 0.629704-41.641194 1.614626-27.690829 1.969843-50.440903 12.012814-68.201784 35.279569-30.371107 39.719789-39.477595 82.200588-22.782367 129.460679a801.548577 801.548577 0 0 0 67.507495 145.316302c27.561659 46.049122 60.580752 87.964802 97.491093 126.812693 12.303447 12.917005 26.140788 24.413139 39.396864 36.409807a580.344873 580.344873 0 0 0 81.280252 60.516167 615.301517 615.301517 0 0 0 125.940795 60.273973c29.337747 10.172141 59.192174 18.794242 90.112254 22.604758 29.692964 3.649054 59.450514 7.104353 89.272648 9.429414 13.75661 1.065653 27.77156-0.484388 41.625048-1.420871 18.810388-1.2917 37.60463-2.841741 56.350433-4.843877 32.566998-3.439152 64.197513-11.302379 95.47281-20.812523a631.189432 631.189432 0 0 0 139.035409-61.355773 601.819393 601.819393 0 0 0 115.913971-88.239288A790.908195 790.908195 0 0 0 1117.320902 254.908457a591.760276 591.760276 0 0 0 49.294519-70.607577c16.90513-28.80492 31.630515-58.998419 45.564734-89.385672 8.815856-19.246337 14.838409-39.832813 21.313058-60.080218 3.164666-9.83307 4.424074-20.263551 6.539233-30.4034z m-657.620853-53.282644C471.745156-25.955663 390.125833 77.283496 403.97932 191.24377c12.464909 102.399554 97.442654 184.82619 202.990729 192.237322 62.324547 4.391782 117.786936-15.936354 163.174061-59.030712 42.852163-40.656272 65.473067-92.033658 67.394472-150.919053 1.759942-53.702447-15.936354-101.576095-50.279441-143.330313s-77.711929-67.168424-129.945067-79.116653h8.832002q211.919608 0 423.806923-0.096878a233.571737 233.571737 0 0 0 27.884583-1.921404c8.073128-1.001068 16.25928-0.371364 22.16881 4.843877a61.501088 61.501088 0 0 1 20.990132 41.415146c1.16253 12.803981-5.877237 23.250608-9.461706 34.746742a559.709958 559.709958 0 0 1-58.659347 128.282003c-25.285037 40.914612-54.299858 79.019776-90.176839 111.409165-20.085942 18.099953-40.640126 35.828542-62.066207 52.313869-37.136388 28.627312-78.470803 50.618512-122.001109 67.814274-33.907137 13.417539-68.847635 24.75221-105.338173 29.466917-28.352825 3.6652-56.770235 6.878305-85.236084 9.380975-10.269019 0.90419-20.796377-0.51668-31.146128-1.453163-21.910469-1.969843-44.192302-2.421938-65.586091-6.959037a773.518677 773.518677 0 0 1-87.189781-24.057921c-37.039511-12.545641-71.624791-30.774764-104.660031-51.764896a576.421333 576.421333 0 0 1-74.482678-56.511895c-27.012686-24.074067-52.717525-49.472128-73.982144-78.599974-20.473452-28.0299-39.41301-57.303062-57.270769-87.076757a469.064878 469.064878 0 0 1-48.939301-113.524325c-2.664132-9.380975-4.763145-19.375507 0.952629-28.514288 4.327197-6.910597 9.31639-13.401392 14.14412-19.972918 9.154927-12.448763 20.602622-17.16347 36.216051-12.771688a106.000169 106.000169 0 0 0 28.304387 3.374567q204.653792 0.306779 409.275292 0.145316zM765.332526 160.081496c0 4.843877 0.984922 11.722182-0.161463 18.245269-6.458502 36.474392-22.136517 67.814274-51.328947 91.743026-34.988936 28.772628-74.934773 39.913544-119.223953 32.712314-38.751014-6.29704-71.043526-24.703771-95.166032-56.511895-18.293708-24.138652-25.624108-52.055529-25.834009-81.457861-0.080731-14.725385 3.358421-29.983597 7.960104-44.111571 14.53163-44.822006 45.209516-74.934773 89.046601-91.597709 31.04925-11.802913 62.970398-11.399257 94.600912-3.439152 28.708043 7.217376 53.557131 22.104224 71.980009 45.484002 19.859895 25.317329 29.466917 54.574345 28.126778 88.933577zM0 527.570279v95.262909c5.312118 14.40246 12.319593 27.981461 23.476656 38.605697 15.629576 14.886848 31.646661 29.386186 48.099696 43.336551C107.517917 735.259567 147.124683 760.480019 188.394513 782.971753c35.683225 19.375507 73.174831 34.875913 111.279995 48.923155 43.691768 16.146256 87.36739 32.066464 132.964416 41.738071C461.992818 879.849288 491.669636 884.693165 521.3626 889.052654c21.765153 3.229251 43.756353 5.957968 65.699115 6.345478 44.644397 0.791167 89.369526 1.856819 133.836315-4.504805 20.667207-2.970911 41.592755-4.407928 62.033914-8.428346 47.211652-9.31639 93.648284-21.264619 138.938532-38.153602 49.310665-18.406732 99.202596-35.408739 144.395965-62.970398 24.477724-14.951433 48.697108-30.419546 72.238349-46.824142 17.760881-12.335739 34.617572-26.092349 51.280508-39.92969a270.417492 270.417492 0 0 0 27.448635-26.705907c11.593012-12.820127 18.471317-28.352825 22.717782-45.048054v-95.262909c-0.581265-3.778224-0.984922-7.58874-1.759942-11.30238-5.295972-25.575669-14.095681-49.778907-30.92008-70.07475-16.469181-19.876041-36.506684-33.535773-63.955319-33.358164-50.570073 0.355218-101.156293 0-151.774805 0.25834-5.635043 0-12.045107 0.742728-16.775959 3.455299-14.321729 8.23459-28.191363 17.276494-41.802657 26.657468-6.458502 4.407928-13.352954 9.31639-17.42181 15.694161-12.917005 20.069796-17.308786 43.013625-17.760881 66.457988-0.64585 33.067532-0.161463 66.199649-0.161463 99.251035 0 5.134509-0.209901 10.414335-5.893383 12.497202-18.245269 6.716842-36.361368 13.853487-54.89727 19.504677-34.988936 10.656529-70.268505 20.263551-106.759043 24.445431-22.863098 2.63184-45.677758 7.023621-68.589295 7.621033-44.563666 1.16253-89.256502 1.937551-133.481097-6.054846-22.604758-4.085003-45.564734-6.329332-67.555934-12.384178-33.907137-9.348682-66.877792-21.716714-100.558881-31.759685-8.702832-2.583401-9.590876-7.136645-9.687754-14.354022-0.371364-37.297851 0-74.627994-2.050574-111.828967-0.871898-15.387382-6.087138-30.936226-11.657597-45.532442-6.458502-16.969715-22.007347-26.689761-35.3603-38.056725-14.40246-12.222716-30.677886-16.146256-49.262227-15.968647-47.324676 0.597411-94.681644 0.096878-142.087051 0.339072a58.998419 58.998419 0 0 0-17.018153 2.906326c-35.667079 11.060185-58.627055 37.136388-76.339498 67.95959C8.928879 497.183025 5.392849 512.941771 0 527.570279z m1068.30087-35.521763c24.49387 0 48.971594 0.145316 73.465464-0.12917 4.746999 0 7.249669 1.614626 9.235658 5.667335a99.70313 99.70313 0 0 1 9.816923 41.980266c0.371364 21.781299-0.468241 43.594891 0.322926 65.360043 0.419803 11.415403-1.808381 19.133313-12.158131 26.35069-30.500277 21.296911-59.385929 44.886591-89.805475 66.296526-25.39806 17.873905-51.797189 34.375379-78.293194 50.618512-17.066592 10.559651-34.32694 21.264619-52.814403 28.627311-50.876852 20.247405-103.10999 36.619708-157.506726 44.531374-35.053521 5.102217-70.236213 10.640383-105.548074 12.481056-40.785442 2.131306-81.861517 1.840673-122.501643-4.375636-30.241937-4.617829-60.726068-8.202298-90.499764-14.951432-51.668019-11.689889-101.721412-28.659604-149.142964-52.620648-27.787706-14.047243-55.639998-28.094485-82.458929-43.885523-27.868438-16.420742-55.010294-34.230062-81.538592-52.749818-19.246337-13.465977-37.136388-28.950237-55.268633-43.90167a13.950365 13.950365 0 0 1-4.294904-9.526291c-0.355218-23.944897-0.209901-47.905941-0.145317-71.850838a14.095681 14.095681 0 0 1 1.001068-6.184016c6.0387-12.206569 12.464909-24.219384 18.439024-36.442099 2.24433-4.56939 5.425142-5.489727 10.22058-5.473581 46.824142 0.177609 93.648284 0.096878 140.472426 0.113024 9.590876 0 26.722053 13.805049 28.304386 23.331339A120.612531 120.612531 0 0 1 279.330226 534.319413c0.161463 32.018025 0 64.036051 0.113023 96.054076a65.63453 65.63453 0 0 0 0.855752 8.702832c2.712571 19.375507 11.302379 36.216052 23.928751 50.731536 6.458502 7.524155 14.127974 15.597283 22.976122 19.375507 23.654265 10.059117 48.002819 18.681218 72.528981 26.463713 33.907137 10.73726 68.201785 19.779163 103.513646 24.445431 25.430353 3.342275 50.828413 8.444492 76.339498 9.203366 45.903805 1.388578 92.033658 2.3735 137.533807-6.022553 26.673615-4.843877 53.670154-8.557516 79.859381-15.355089 30.677886-7.960104 60.822946-18.326 90.919566-28.498142a169.245053 169.245053 0 0 0 35.812396-16.146256c30.258083-19.004143 45.58088-46.824142 45.209516-82.959462-0.274486-27.448635 0.548973-54.89727-0.25834-82.345905-0.532826-18.261415 9.154927-31.04925 19.940626-43.59489 1.501602-1.759942 5.247533-2.212037 7.960104-2.24433 23.880312-0.161463 47.792917-0.080731 71.737815-0.080731zM1068.30087 492.048516c-23.944897 0-47.889795 0-71.834693 0.080731-2.712571 0-6.458502 0.484388-7.960104 2.24433-10.785699 12.545641-20.473452 25.333475-19.940626 43.59489 0.807313 27.448635 0 54.89727 0.258341 82.345905 0.38751 36.183759-14.935287 63.955319-45.209517 82.959462a169.245053 169.245053 0 0 1-35.812395 16.146256c-30.096621 10.172141-60.209388 20.538037-90.919567 28.498142-26.189227 6.797574-53.185767 10.446628-79.859381 15.355089-45.548588 8.396053-91.630002 7.411131-137.533807 6.022553-25.511084-0.758874-50.909145-5.861091-76.339497-9.203366-35.311861-4.666268-69.671094-13.708171-103.513646-24.445431-24.526163-7.782495-48.874716-16.404596-72.528981-26.463713-8.848148-3.745931-16.453035-11.819059-22.976123-19.375507-12.561787-14.53163-21.21618-31.339883-23.928751-50.731536a65.63453 65.63453 0 0 1-0.855751-8.702832c0-32.018025 0-64.036051-0.113024-96.054076a120.612531 120.612531 0 0 0-1.614626-18.987996c-1.614626-9.526291-18.71351-23.33134-28.304386-23.33134-46.824142 0-93.648284 0-140.472426-0.113024-4.843877 0-7.97625 0.90419-10.220579 5.473581-5.974115 12.238862-12.400324 24.219384-18.439025 36.442099a14.095681 14.095681 0 0 0-1.001067 6.184016c0 23.944897-0.209901 47.905941 0.145316 71.850839a13.950365 13.950365 0 0 0 4.294904 9.461705C101.721412 636.299165 119.627609 651.783424 138.8578 665.249402c26.528298 18.519755 53.670154 36.329076 81.538592 52.749818 26.818931 15.791038 54.671222 29.838281 82.458928 43.885523C350.276874 785.845786 400.427144 802.815501 452.095163 814.505391c29.773696 6.749135 60.257827 10.333604 90.499764 14.951432 40.640126 6.216308 81.716201 6.458502 122.501642 4.375636 35.311861-1.840673 70.494553-7.378839 105.548075-12.481056 54.396736-7.911665 106.565288-24.219384 157.506725-44.531374 18.406732-7.362693 35.667079-18.06766 52.733672-28.562726 26.496006-16.243133 52.895134-32.744607 78.293194-50.618512 30.419546-21.409935 59.305198-44.999615 89.805475-66.296526 10.34975-7.217376 12.577933-14.935287 12.158131-26.35069-0.791167-21.765153 0-43.594891-0.322926-65.360043a99.70313 99.70313 0 0 0-9.816923-41.980266c-1.985989-4.101149-4.488659-5.731921-9.235658-5.667335-24.445431 0.209901-48.971594 0.064585-73.465464 0.064585z"  horiz-adv-x="1240" />

    
    <glyph glyph-name="biyanjing" unicode="&#59649;" d="M469.333333 214.613333c-36.053333 2.432-71.253333 8.533333-104.96 17.92l-69.802666-149.674666a42.368 42.368 0 0 0-56.533334-20.266667 42.666667 42.666667 0 0 0-20.821333 56.32l66.986667 143.658667a451.712 451.712 0 0 0-148.906667 112.682666 388.693333 388.693333 0 0 0-70.570667 119.338667 42.666667 42.666667 0 1 0 80.128 29.354667 303.445333 303.445333 0 0 1 55.210667-93.098667C270.634667 348.586667 383.018667 298.666667 505.728 298.666667c122.752 0 235.136 49.962667 305.706667 132.181333a303.445333 303.445333 0 0 1 55.210666 93.098667 42.666667 42.666667 0 0 0 80.128-29.354667 388.693333 388.693333 0 0 0-70.570666-119.338667 423.68 423.68 0 0 0-18.773334-20.48l104.362667-104.362666a42.666667 42.666667 0 0 0-0.298667-60.032 42.368 42.368 0 0 0-60.032-0.298667l-109.653333 109.653333c-20.48-14.08-42.24-26.581333-65.024-37.418666l66.901333-143.36a42.666667 42.666667 0 0 0-20.821333-56.362667 42.368 42.368 0 0 0-56.533333 20.266667l-69.717334 149.546666a520.533333 520.533333 0 0 0-91.946666-16.810666v-130.645334A42.666667 42.666667 0 0 0 512 42.666667c-23.722667 0-42.666667 18.944-42.666667 42.24v129.706666zM176.128 371.626667a42.368 42.368 0 0 0 60.032-0.256 42.666667 42.666667 0 0 0 0.298667-60.074667l-121.216-121.216a42.368 42.368 0 0 0-60.074667 0.298667 42.666667 42.666667 0 0 0-0.298667 60.032l121.258667 121.258666z"  horiz-adv-x="1024" />

    
    <glyph glyph-name="shanghua" unicode="&#58919;" d="M512 891.904C231.424 891.904 4.096 664.576 4.096 384s227.328-508.416 508.416-508.416 508.416 227.328 508.416 508.416S792.576 891.904 512 891.904z m0-941.568c-239.616 0-433.664 194.048-433.664 433.664S272.384 817.664 512 817.664s433.664-194.048 433.664-433.664-194.048-433.664-433.664-433.664zM751.616 125.952c-9.216 0-18.432 3.584-25.088 10.24l-214.016 213.504-214.016-213.504c-13.824-13.824-36.864-13.824-50.688 0s-13.824 36.864 0 50.688l239.104 238.592c13.824 13.824 36.864 13.824 50.688 0l239.104-238.592c13.824-13.824 13.824-36.864 0-50.688-6.656-6.656-15.872-10.24-25.088-10.24zM273.408 330.752c-9.216 0-18.432 3.584-25.6 10.752-13.824 13.824-13.824 36.864 0 50.688l239.104 238.592c13.824 13.824 36.864 13.824 50.688 0l239.104-238.592c13.824-13.824 13.824-36.864 0-50.688s-36.864-13.824-50.688 0L512 555.008l-214.016-213.504c-6.144-7.168-15.36-10.752-24.576-10.752z"  horiz-adv-x="1024" />

    
    <glyph glyph-name="sousuo1" unicode="&#58900;" d="M988.6 27.5L750.1 266.1c-2.8 2.7-5.8 4.9-8.8 7.2 40.3 61.8 63.8 135.5 63.8 214.8 0 218-176.6 394.6-394.6 394.6-217.9 0-394.6-176.6-394.6-394.6 0-218 176.7-394.7 394.6-394.7 79.3 0 153.1 23.6 215 63.9 2.2-3 4.3-6 7.1-8.7L871.1-90c16.3-16.2 37.5-24.3 58.8-24.3 21.3 0 42.5 8.1 58.8 24.3 32.3 32.4 32.3 85-0.1 117.5M410.5 218.1c-148.9 0-270 121.2-270 270 0 148.9 121.1 270 270 270s270.1-121.2 270.1-270c-0.1-148.9-121.3-270-270.1-270"  horiz-adv-x="1024" />

    
    <glyph glyph-name="zuo1" unicode="&#59109;" d="M592 160c-8 0-16 3.2-22.4 9.6l-192 192c-12.8 12.8-12.8 32 0 44.8l192 192c12.8 12.8 32 12.8 44.8 0 12.8-12.8 12.8-32 0-44.8L444.8 384l169.6-169.6c12.8-12.8 12.8-32 0-44.8-6.4-6.4-14.4-9.6-22.4-9.6z m-80-224C265.6-64 64 137.6 64 384S265.6 832 512 832s448-201.6 448-448-201.6-448-448-448z m0 832c-211.2 0-384-172.8-384-384s172.8-384 384-384 384 172.8 384 384-172.8 384-384 384z"  horiz-adv-x="1024" />

    
    <glyph glyph-name="zhuye1" unicode="&#59246;" d="M947.2 480L576 793.6c-35.2 30.4-88 30.4-123.2 0L76.8 480c-8-6.4-12.8-14.4-12.8-25.6 0-17.6 14.4-32 32-32 8 0 16 3.2 20.8 8L128 440v-356.8c0-72 54.4-131.2 123.2-131.2h521.6C840-48 896 11.2 896 83.2V440l9.6-8c6.4-4.8 12.8-8 22.4-8 17.6 0 32 14.4 32 32 0 8-4.8 17.6-12.8 24zM448 16V240c0 17.6 14.4 32 32 32h64c17.6 0 32-14.4 32-32v-224H448z m384 67.2c0-36.8-27.2-67.2-60.8-67.2H640V240c0 52.8-43.2 96-96 96h-64c-52.8 0-96-43.2-96-96v-224H252.8c-33.6 0-60.8 30.4-60.8 67.2V492.8L492.8 744c11.2 9.6 28.8 9.6 41.6 0L832 494.4v-411.2z"  horiz-adv-x="1024" />

    
    <glyph glyph-name="mima" unicode="&#58903;" d="M204.8 505.6A19.2 19.2 0 0 1 185.6 486.4v-409.6c0-10.5984 8.6016-19.2 19.2-19.2h614.4a19.2 19.2 0 0 1 19.2 19.2V486.4A19.2 19.2 0 0 1 819.2 505.6H204.8z m96 64V691.2c0 45.9264 37.2736 83.2 83.2 83.2h256c45.9264 0 83.2-37.2736 83.2-83.2v-121.6H819.2c45.9264 0 83.2-37.2736 83.2-83.2v-409.6c0-45.9264-37.2736-83.2-83.2-83.2H204.8A83.2 83.2 0 0 0 121.6 76.8V486.4c0 45.9264 37.2736 83.2 83.2 83.2h96z m64 0h294.4V691.2a19.2 19.2 0 0 1-19.2 19.2h-256A19.2 19.2 0 0 1 364.8 691.2v-121.6zM358.4 249.6a32 32 0 1 0 0 64h307.2a32 32 0 1 0 0-64H358.4z"  horiz-adv-x="1024" />

    
    <glyph glyph-name="wenju" unicode="&#58891;" d="M512 384m-408 0a408 408 0 1 1 816 0 408 408 0 1 1-816 0ZM512-36c-56.7 0-111.7 11.1-163.5 33-50 21.2-94.9 51.4-133.5 90-38.6 38.6-68.9 83.5-90 133.5-21.9 51.8-33 106.8-33 163.5s11.1 111.7 33 163.5c21.2 50 51.4 94.9 90 133.5 38.6 38.6 83.5 68.9 133.5 90 51.8 21.9 106.8 33 163.5 33s111.7-11.1 163.5-33c50-21.2 94.9-51.4 133.5-90 38.6-38.6 68.9-83.5 90-133.5 21.9-51.8 33-106.8 33-163.5s-11.1-111.7-33-163.5c-21.2-50-51.4-94.9-90-133.5-38.6-38.6-83.5-68.9-133.5-90-51.8-21.9-106.8-33-163.5-33z m0 816c-218.4 0-396-177.6-396-396s177.6-396 396-396 396 177.6 396 396-177.6 396-396 396zM64 424h80v-80H64zM120 400v-32H88v32h32m24 24H64v-80h80v80zM880 424h80v-80h-80zM936 400v-32h-32v32h32m24 24h-80v-80h80v80zM472 16h80v-80h-80zM528-8v-32h-32v32h32m24 24h-80v-80h80v80zM472 832h80v-80h-80zM528 808v-32h-32V808h32m24 24h-80v-80h80V832zM798.375 821.702l151.32-151.32-724.07-724.07-151.32 151.32zM798.4 787.8l117.4-117.4-690.2-690.2-117.4 117.4 690.2 690.2m0 33.9L74.3 97.6l151.3-151.3 724.1 724.1L798.4 821.7zM798.375 787.734l33.94-33.941-690.129-690.13-33.94 33.94zM895.6 622c-3.1 0-6.1 1.2-8.5 3.5l-39.6 39.6c-4.7 4.7-4.7 12.3 0 17 4.7 4.7 12.3 4.7 17 0l39.6-39.6c4.7-4.7 4.7-12.3 0-17-2.4-2.4-5.4-3.5-8.5-3.5zM805.1 531.5c-3.1 0-6.1 1.2-8.5 3.5L757 574.6c-4.7 4.7-4.7 12.3 0 17 4.7 4.7 12.3 4.7 17 0l39.6-39.6c4.7-4.7 4.7-12.3 0-17-2.4-2.4-5.4-3.5-8.5-3.5zM714.6 441c-3.1 0-6.1 1.2-8.5 3.5l-39.6 39.6c-4.7 4.7-4.7 12.3 0 17 4.7 4.7 12.3 4.7 17 0l39.6-39.6c4.7-4.7 4.7-12.3 0-17-2.4-2.4-5.5-3.5-8.5-3.5zM624.1 350.4c-3.1 0-6.1 1.2-8.5 3.5L576 393.6c-4.7 4.7-4.7 12.3 0 17 4.7 4.7 12.3 4.7 17 0l39.6-39.6c4.7-4.7 4.7-12.3 0-17-2.4-2.4-5.5-3.6-8.5-3.6zM533.6 259.9c-3.1 0-6.1 1.2-8.5 3.5L485.5 303c-4.7 4.7-4.7 12.3 0 17 4.7 4.7 12.3 4.7 17 0l39.6-39.6c4.7-4.7 4.7-12.3 0-17-2.4-2.3-5.5-3.5-8.5-3.5zM443 169.4c-3.1 0-6.1 1.2-8.5 3.5L395 212.5c-4.7 4.7-4.7 12.3 0 17 4.7 4.7 12.3 4.7 17 0l39.6-39.6c4.7-4.7 4.7-12.3 0-17-2.4-2.3-5.5-3.5-8.6-3.5zM352.5 78.9c-3.1 0-6.1 1.2-8.5 3.5L304.5 122c-4.7 4.7-4.7 12.3 0 17 4.7 4.7 12.3 4.7 17 0l39.6-39.6c4.7-4.7 4.7-12.3 0-17-2.4-2.3-5.5-3.5-8.6-3.5zM262-11.6c-3.1 0-6.1 1.2-8.5 3.5l-39.6 39.6c-4.7 4.7-4.7 12.3 0 17s12.3 4.7 17 0l39.6-39.6c4.7-4.7 4.7-12.3 0-17-2.3-2.3-5.4-3.5-8.5-3.5zM846 186.1l43.6-152c2.5-16.1-11.4-30-27.4-27.4l-152 43.6L95.8 664.8c-12.5 12.5-12.5 32.8 0 45.3l90.5 90.5c12.5 12.5 32.8 12.5 45.3 0L846 186.1zM208.9 786c1.2 0 3.6-0.3 5.7-2.3l610.1-610.1 41-142.9-142.9 41-610 610.1c-3.1 3.1-3.1 8.2 0 11.3l90.5 90.5c2 2.1 4.4 2.4 5.6 2.4m0 24c-8.2 0-16.4-3.1-22.6-9.4l-90.5-90.5c-12.5-12.5-12.5-32.8 0-45.3l614.5-614.5 152-43.6c1.3-0.2 2.6-0.3 3.8-0.3 14.4 0 26 12.9 23.6 27.8l-43.6 152L231.6 800.6c-6.3 6.3-14.5 9.4-22.7 9.4zM749 99.3l-615 615-26.9-26.8 615.1-615.1 143.7-41.9-6.9 33.8zM868.7 105.5l21-71.3c2.5-16.1-11.4-30-27.4-27.4l-71.3 21 77.7 77.7zM846 186.1L710.3 50.4 95.8 664.8c-12.5 12.5-12.5 32.8 0 45.3l90.5 90.5c12.5 12.5 32.8 12.5 45.3 0L846 186.1zM208.9 786c1.2 0 3.6-0.3 5.7-2.3l597.5-597.5-101.8-101.9-597.5 597.5c-3.1 3.1-3.1 8.2 0 11.3l90.5 90.5c2 2.1 4.4 2.4 5.6 2.4m0 24c-8.2 0-16.4-3.1-22.6-9.4l-90.5-90.5c-12.5-12.5-12.5-32.8 0-45.3l614.5-614.5L846 186.1 231.6 800.6c-6.3 6.3-14.5 9.4-22.7 9.4zM744.2 118.2l-33.9-33.9-597.5 597.5c-3.1 3.1-3.1 8.2 0 11.3l28.3 28.3 603.1-603.2zM283.17 733.377l16.97-16.97-118.793-118.793-16.97 16.97z"  horiz-adv-x="1024" />

    
    <glyph glyph-name="wenjuyongpin-" unicode="&#58894;" d="M731.2 127.6l-24.6-175c-1.3-9.5-10-17.1-19.3-17.1H335.2c-9.3 0-17.9 7.6-19.3 17.1l-24.6 175h439.9zM725.8 485.5c2.4 0 6-0.5 10.1-5.2 6.1-7 11.6-21.8 8.7-42.4l-66.5-472.4H344.4l-66.5 472.4c-2.9 20.6 2.6 35.4 8.7 42.4 4.1 4.7 7.7 5.2 10.1 5.2h429.1m0 30H296.6c-33.1 0-54.7-37.5-48.5-81.8l67.7-481.1c1.3-9.5 10-17.1 19.3-17.1h352.1c9.3 0 17.9 7.6 19.3 17.1l67.7 481.1c6.3 44.3-15.2 81.8-48.4 81.8zM622.9 413.2l-65.1-65.1c-9.4-9.4-24.6-9.4-33.9 0L232.5 639.5c-9.4 9.4-9.4 24.6 0 33.9l65.1 65.1c9.4 9.4 24.6 9.4 33.9 0l291.3-291.3c9.4-9.4 9.4-24.6 0.1-34zM314.6 713.1l282.8-282.8-56.6-56.6L258 656.5l56.6 56.6m0 32.4c-6.1 0-12.3-2.3-17-7l-65.1-65.1c-9.4-9.4-9.4-24.6 0-33.9l291.3-291.3c4.7-4.7 10.8-7 17-7s12.3 2.3 17 7l65.1 65.1c9.4 9.4 9.4 24.6 0 33.9L331.5 738.5c-4.6 4.7-10.8 7-16.9 7zM342.5 687.5l-35.4-35.4c-2-2-5.1-2-7.1 0s-2 5.1 0 7.1l35.4 35.4c2 2 5.1 2 7.1 0s2-5.1 0-7.1zM339 696c-1.3 0-2.6-0.5-3.5-1.5l-35.4-35.4c-2-2-2-5.1 0-7.1 1-1 2.3-1.5 3.5-1.5 1.3 0 2.6 0.5 3.5 1.5l35.4 35.4c2 2 2 5.1 0 7.1-1 1.1-2.2 1.5-3.5 1.5zM366.2 663.8l-35.4-35.4c-2-2-5.1-2-7.1 0s-2 5.1 0 7.1l35.4 35.4c2 2 5.1 2 7.1 0s2-5.2 0-7.1zM362.7 672.3c-1.3 0-2.6-0.5-3.5-1.5l-35.4-35.4c-2-2-2-5.1 0-7.1 1-1 2.3-1.5 3.5-1.5s2.6 0.5 3.5 1.5l35.4 35.4c2 2 2 5.1 0 7.1-0.9 1-2.2 1.5-3.5 1.5zM390 640.1l-35.4-35.4c-2-2-5.1-2-7.1 0s-2 5.1 0 7.1l35.4 35.4c2 2 5.1 2 7.1 0 1.9-2 1.9-5.2 0-7.1zM386.4 648.6c-1.3 0-2.6-0.5-3.5-1.5l-35.4-35.4c-2-2-2-5.1 0-7.1 1-1 2.3-1.5 3.5-1.5s2.6 0.5 3.5 1.5l35.4 35.4c2 2 2 5.1 0 7.1-0.9 1-2.2 1.5-3.5 1.5zM413.7 616.4L378.3 581c-2-2-5.1-2-7.1 0s-2 5.1 0 7.1l35.4 35.4c2 2 5.1 2 7.1 0 1.9-2 1.9-5.2 0-7.1zM410.2 624.9c-1.3 0-2.6-0.5-3.5-1.5L371.3 588c-2-2-2-5.1 0-7.1 1-1 2.3-1.5 3.5-1.5 1.3 0 2.6 0.5 3.5 1.5l35.4 35.4c2 2 2 5.1 0 7.1-1 1-2.3 1.5-3.5 1.5zM437.4 592.6L402 557.2c-2-2-5.1-2-7.1 0s-2 5.1 0 7.1l35.4 35.4c2 2 5.1 2 7.1 0s2-5.1 0-7.1zM433.9 601.2c-1.3 0-2.6-0.5-3.5-1.5L395 564.3c-2-2-2-5.1 0-7.1 1-1 2.3-1.5 3.5-1.5s2.6 0.5 3.5 1.5l35.4 35.4c2 2 2 5.1 0 7.1-1 1-2.2 1.5-3.5 1.5zM461.1 568.9l-35.4-35.4c-2-2-5.1-2-7.1 0s-2 5.1 0 7.1L454 576c2 2 5.1 2 7.1 0s2-5.1 0-7.1zM457.6 577.4c-1.3 0-2.6-0.5-3.5-1.5l-35.4-35.4c-2-2-2-5.1 0-7.1 1-1 2.3-1.5 3.5-1.5s2.6 0.5 3.5 1.5l35.4 35.4c2 2 2 5.1 0 7.1-0.9 1.1-2.2 1.5-3.5 1.5zM715.8 799.6l45.9-19.8-158.8-367.2-45.9 19.9L715.8 799.6m-3.1 31.9c-9.3 0-18.1-5.4-22-14.5L527.1 438.9c-5.3-12.2 0.3-26.3 12.5-31.6l56.9-24.6c3.1-1.3 6.3-2 9.5-2 9.3 0 18.1 5.4 22 14.5l163.6 378.1c5.3 12.2-0.3 26.3-12.5 31.6l-56.9 24.6c-3.1 1.4-6.3 2-9.5 2zM735.5 704l-56.9 24.6c-12.2 5.3-17.8 19.4-12.5 31.6L690.7 817c5.3 12.2 19.4 17.8 31.6 12.5l56.9-24.6c12.2-5.3 17.8-19.4 12.5-31.6L767 716.5c-5.2-12.2-19.4-17.8-31.5-12.5zM715.8 799.6l45.9-19.8-19.8-45.9-45.9 19.8 19.8 45.9m-3.1 31.9c-9.3 0-18.1-5.4-22-14.5l-24.6-56.9c-5.3-12.2 0.3-26.3 12.5-31.6l56.9-24.6c3.1-1.3 6.3-2 9.5-2 9.3 0 18.1 5.4 22 14.5l24.6 56.9c5.3 12.2-0.3 26.3-12.5 31.6l-56.9 24.6c-3.1 1.4-6.3 2-9.5 2zM660.1 207.9c-8.2 1.2-13.9 8.8-12.7 17l10 69.3c1.2 8.2 8.8 13.9 17 12.7 8.2-1.2 13.9-8.8 12.7-17l-10-69.3c-1.2-8.2-8.8-13.9-17-12.7z"  horiz-adv-x="1024" />

    
    <glyph glyph-name="qianbi" unicode="&#58895;" d="M508.5 381.1m-134 0a134 134 0 1 1 268 0 134 134 0 1 1-268 0ZM661.6 318.4V755.6c0 56-45.8 101.8-101.8 101.8H456.2c-56 0-101.8-45.8-101.8-101.8v-437.2l163.2-280.2 144 280.2ZM518.6-3.3999999999999772L334.3 313V755.6c0 67.2 54.7 121.8 121.8 121.8h103.6c67.2 0 121.8-54.7 121.8-121.8v-442l-162.9-317ZM374.3 323.79999999999995l142.1-244 125.2 243.4V755.6c0 45.1-36.7 81.8-81.8 81.8H456.2c-45.1 0-81.8-36.7-81.8-81.8v-431.8ZM354.4 338.70000000000004l90.8 99.8 66.7-99.8 75.9 99.8 73.8-99.8V293L517.2 49.10000000000002 354.4 293ZM518.2 11.600000000000022L334.4 286.9v59.5l113.3 124.5 65.3-97.8 75.1 98.7 93.6-126.6v-57.8L518.2 11.600000000000022ZM374.4 299l141.8-212.4 125.5 211.8V332l-54.1 73.1-76.8-100.9-68 101.9-68.4-75.2V299ZM460.5 136.60000000000002l104.6-0.6-49.3-95.3ZM445.2 438.5V662.6M425.2 662.6h40v-224.1h-40ZM587.8 438.5V662.1M567.8 662.1h40v-223.6h-40ZM674.6 664.9H341.3c-6.6 0-12 5.4-12 12V732c0 6.6 5.4 12 12 12h333.3c6.6 0 12-5.4 12-12v-55.1c0-6.6-5.4-12-12-12ZM674.6 644.9H341.3c-17.6 0-32 14.4-32 32V732c0 17.6 14.4 32 32 32h333.3c17.6 0 32-14.4 32-32v-55.1c0-17.7-14.4-32-32-32Zm-325.3 40h317.3V724H349.3v-39.1Z"  horiz-adv-x="1024" />

    
    <glyph glyph-name="shoucang4" unicode="&#58901;" d="M707.584 802.816c-77.312 0-148.992-38.912-196.608-102.912-47.104 64-119.296 102.912-196.608 102.912-139.264 0-252.416-123.904-252.416-275.968 0-90.624 40.448-154.624 73.216-205.824C229.888 172.032 468.48-12.8 478.72-20.48c9.728-7.68 20.992-11.264 32.256-11.264s22.528 3.584 32.256 11.264c10.24 7.68 248.32 193.024 343.552 341.504 32.768 51.2 73.216 115.2 73.216 205.824 0 152.064-113.152 275.968-252.416 275.968zM821.76 322.56c-87.552-122.88-272.896-263.168-282.112-269.824-8.704-6.656-18.944-10.24-28.672-10.24-10.24 0-19.968 3.072-28.672 10.24-9.216 6.656-190.976 148.48-282.112 274.944-29.184 46.08-75.776 103.424-75.776 184.32 0 136.192 75.776 231.936 200.192 231.936 69.12 0 144.384-66.048 186.368-123.392 42.496 57.344 117.248 123.392 186.368 123.392 124.928 0 205.824-95.744 205.824-231.936 0-80.896-51.712-143.872-81.408-189.44z"  horiz-adv-x="1024" />

    
    <glyph glyph-name="shoucang5" unicode="&#58897;" d="M520.7 797.8L643 550.1l273.4-39.7-197.8-192.9 46.7-272.3-244.6 128.6-244.5-128.6 46.7 272.3L125 510.4l273.5 39.7z"  horiz-adv-x="1024" />

    
    <glyph glyph-name="you_" unicode="&#59047;" d="M545.2 488.8h-421c-14.5 0-26.3-11.8-26.3-26.3v-155.2c0-14.5 11.8-26.3 26.3-26.3h421v-106.1c0-10.2 11.1-16.5 19.8-11.4l356.4 209.1c8.7 5.1 8.7 17.6 0 22.7l-356.3 209c-8.8 5.2-19.8-1.2-19.8-11.4v-104.1z"  horiz-adv-x="1024" />

    
    <glyph glyph-name="liebiao3" unicode="&#60523;" d="M64 416h352V768H64v-352z m64 288h224v-224H128V704zM64-32h352V320H64v-352z m64 288h224v-224H128v224zM526.848 672H928a32 32 0 1 1 0 64H526.848a32 32 0 0 1 0-64zM928 288H526.848a32 32 0 1 1 0-64H928a32 32 0 1 1 0 64zM928 512H526.848a32 32 0 0 1 0-64H928a32 32 0 1 1 0 64zM928 64H526.848a32 32 0 1 1 0-64H928a32 32 0 1 1 0 64z"  horiz-adv-x="1024" />

    
    <glyph glyph-name="sousuo2" unicode="&#58904;" d="M487.936 730.624c149.504 0 271.36-121.856 271.36-271.36s-121.856-271.36-271.36-271.36-271.36 121.856-271.36 271.36 121.856 271.36 271.36 271.36m0 61.44c-183.808 0-332.8-148.992-332.8-332.8s148.992-332.8 332.8-332.8 332.8 148.992 332.8 332.8-148.992 332.8-332.8 332.8zM897.024 67.584l-30.208-30.208c-11.776-11.776-31.744-11.776-43.52 0l-163.84 163.84c-11.776 11.776-11.776 31.744 0 43.52l30.208 30.208c11.776 11.776 31.744 11.776 43.52 0l163.84-163.84c11.776-11.776 11.776-31.232 0-43.52z"  horiz-adv-x="1024" />

    
    <glyph glyph-name="dianhua5" unicode="&#58956;" d="M270.4 656.5v0.6c0 21.6 17.5 39.1 39.1 39.1h422.3c21.6 0 39.1-17.5 39.1-39.1v-0.6l3.1-26.4h177v94.4c0 31.2-25.4 56.7-56.7 56.7H146.9c-31.2 0-56.7-25.4-56.7-56.7v-94.4h177l3.2 26.4z m-19.9-7.6H109.1v75.5c0 20.8 16.9 37.8 37.8 37.8h747.5c20.8 0 37.8-16.9 37.8-37.8v-75.5H790.8l-1 8.7c-0.3 31.7-26.2 57.4-58 57.4H309.5c-31.8 0-57.7-25.7-58-57.4l-1-8.7zM870 491.1c-0.6 23.8-20.1 43-44.1 43H680.2V644.3h-20.5v-110.2H378.1V644.3h-20.5v-110.2H215.3c-23.9 0-43.5-19.2-44.1-43L77 60.9l-0.2-1v-1c0-39.9 32.5-72.4 72.4-72.4H892c39.9 0 72.4 32.5 72.4 72.4v1L870 491.1z m22-485.8H149.2c-29.2 0-53 23.5-53.5 52.5L189.9 488l0.2 1v1c0 13.9 11.3 25.2 25.2 25.2H826c13.9 0 25.2-11.3 25.2-25.2v-1l94.4-431.2c-0.6-29-24.4-52.5-53.6-52.5zM258.6 225.7h524.1V457H258.6v-231.3z m18.9 212.4h486.3v-193.6H277.5V438.1zM261.6 80.9h464.3v-20.5H261.6zM755.977959 67.99131a11.3 11.3 0 1 1 22.308459 3.618377 11.3 11.3 0 1 1-22.308459-3.618377Z"  horiz-adv-x="1024" />

    
    <glyph glyph-name="shuaxin2" unicode="&#59065;" d="M512 896c282.304 0 512-229.696 512-512s-229.696-512-512-512S0 101.696 0 384 229.696 896 512 896z m112-742.272V256a32 32 0 0 1-64 0v-192h192a32 32 0 0 1 0 64h-47.904A320 320 0 0 1 832 384c0 163.424-123.072 300.096-284.224 318.016a32 32 0 0 1-7.104-63.616A256.032 256.032 0 0 0 624 153.728zM384 605.76V512a32 32 0 0 1 64 0V704H256a32 32 0 1 1 0-64h63.936a320.064 320.064 0 0 1 151.488-573.44 32 32 0 0 1 8 63.488A256.064 256.064 0 0 0 384 605.76z"  horiz-adv-x="1024" />

    
    <glyph glyph-name="zhuye2" unicode="&#58905;" d="M168.446 314.09c-65.329 0.301-104.507 14.122-104.507 87.467 0 48.027 29.622 69.892 55.518 88.996 3.905 2.877 7.616 5.615 7.938 5.906 2.581 2.357 8.208 7.871 13.667 13.209 11.269 11.025 21.763 21.289 37.438 32.951l69.604 61.46-0.006 0.006 11.534 11.068 0.236 0.236 11.594 11.086 1.414 1.416 123.947 110.278 1.422 1.18c12.977 10.869 24.017 20.795 33.077 28.938 25.264 22.711 39.911 35.896 65.227 41.552l7.386 1.651h19.628l7.362-1.651c26.846-6.02 42.595-21.222 71.646-49.29l7.736-7.46c6.068-5.839 8.924-7.991 15.448-12.913l3.913-2.957 3.774-3.305L778.669 604.06l0.13 0.145c5.085-4.466 10.991-10.289 17.182-16.37a525.914 525.914 0 0 1 7.639-7.399c2.335-2.225 5.564-5.422 8.696-8.523 3.726-3.688 7.289-7.212 11.723-10.923 4.621-3.868 5.906-4.806 7.143-5.707 6.565-4.8 12.658-9.244 20.874-17.096 4.442-4.242 9.738-9.52 15.059-14.828 9.273-9.255 18.768-18.733 27.496-25.668 3.344-2.648 4.954-3.819 6.614-5.011 26.008-18.692 57.718-41.486 57.718-91.123 0-73.167-39.187-86.947-104.503-87.24v-236.494c0-16.221-3.254-31.051-8.525-44.36-5.735-14.528-14.058-27.13-23.03-37.616-8.151-9.518-21.436-20.752-36.07-28.513-13.928-7.371-30.108-12.496-47.013-12.496h-195.92V282.249h-61.009v-327.411H321.785c-43.821 0-82.043 21.322-109.385 52.724-27.149 31.173-43.954 73.744-43.954 114.411V314.09z m-44.055 87.467c0-35.712 42.201-25.755 104.507-25.755v-253.829c0-50.576 41.1-106.683 92.888-106.683h100.637V316.944c0 17.174 9.026 25.756 27.096 25.756h123.846c18.735 0 30.97-11.642 30.97-29.44v-297.97H739.8c14.244 0 30.116 11.381 37.274 19.751 9.096 10.625 16.913 25.105 16.913 42.782V375.802c62.307 0 104.511-9.957 104.511 25.755 0 23.087-26.569 37.094-41.432 48.904-15.888 12.624-31.523 29.668-46.564 44.039-10.324 9.86-15.002 11.678-25.187 20.209-8.583 7.175-14.993 14.179-23.258 22.038-8.444 8.036-14.538 14.527-23.169 22.119L593.294 689.047c-11.186 8.487-14.358 10.567-24.779 20.59-26.316 25.304-39.284 38.814-50.819 41.403h-8.164c-14.352-3.211-30.878-23.075-72.566-57.973L313.02 582.788a8517.008 8517.008 0 0 1-23.128-22.156l-74.24-65.552c-19.61-14.393-30.299-27.155-47.641-43.016-14.574-13.335-43.62-26.962-43.62-50.507z"  horiz-adv-x="1024" />

    
    <glyph glyph-name="shangbian" unicode="&#58969;" d="M601.500115-128H421.500115a100 100 0 0 0-100 100V354H141.500115a40 40 0 0 0-32 64L438.500115 858h1a100 100 0 0 0 78 38h1a100 100 0 0 0 78-38h1l317-440a40 40 0 0 0-32-63H701.500115v-383a100 100 0 0 0-100-100zM221.500115 434h140a40 40 0 0 0 40-40v-422a20 20 0 0 1 20-20h180a20 20 0 0 1 20 20V394a40 40 0 0 0 40 40h142L532.500115 809a20 20 0 0 1-30 0z"  horiz-adv-x="1024" />

    
    <glyph glyph-name="sousuo3" unicode="&#58971;" d="M401.769949 92.460103A401.769949 401.769949 0 0 0 245.182687 864.06444a401.769949 401.769949 0 0 0 313.174524-739.668777 399.70959 399.70959 0 0 0-156.587262-31.93556z m0 721.125549C225.609279 813.585652 82.414348 670.390721 82.414348 494.230051s143.19493-319.3556 319.355601-319.3556 319.3556 143.19493 319.3556 319.3556S577.930619 813.585652 401.769949 813.585652zM918.919985-127.99828a103.017936 103.017936 0 0 0-73.142734 29.875202L588.232412 159.421761a41.521379 41.521379 0 0 0 58.720223 58.720223l256.51466-258.575018a20.603587 20.603587 0 0 1 28.845022 0l3.090538 3.090538a20.603587 20.603587 0 0 1 0 28.845022L678.888195 250.077544a41.521379 41.521379 0 0 0 58.720224 58.720223l256.514659-258.575018a103.017936 103.017936 0 0 0 0-145.255289l-3.090538-3.090538a103.017936 103.017936 0 0 0-72.112555-29.875202zM816.932229-33.221779a41.207174 41.207174 0 0 0-28.845022 70.052196l75.203093 74.172914a41.521379 41.521379 0 0 0 58.720223-58.720223l-74.172913-75.203093a41.207174 41.207174 0 0 0-30.905381-10.301794z"  horiz-adv-x="1025" />

    
    <glyph glyph-name="youbian" unicode="&#58975;" d="M649.822168-128a49.890378 49.890378 0 0 0-49.890378 49.890378V146.397077H124.725944A124.725944 124.725944 0 0 0 0 271.123021V495.62972a124.725944 124.725944 0 0 0 124.725944 124.725944h475.205846V846.109622a49.890378 49.890378 0 0 0 78.577345 39.912302l548.794154-395.381242h1.247259a124.725944 124.725944 0 0 0 1.24726-194.572472h-1.24726L679.756395-118.021924a49.890378 49.890378 0 0 0-29.934227-9.978076zM124.725944 520.574909a24.945189 24.945189 0 0 1-24.945189-24.945189v-224.506699a24.945189 24.945189 0 0 1 24.945189-24.945189h525.096224a49.890378 49.890378 0 0 0 49.890378-49.890378v-174.616321l467.72229 350.479902a24.945189 24.945189 0 0 1 0 37.417784L699.712546 748.823386v-178.3581a49.890378 49.890378 0 0 0-49.890378-49.890377z"  horiz-adv-x="1275" />

    
    <glyph glyph-name="zuozuo-" unicode="&#58945;" d="M561.92 704a47.36 47.36 0 0 0 0-64l-256-256 256-256a47.36 47.36 0 0 0-64-64L206.08 350.08A50.56 50.56 0 0 0 192 384a47.36 47.36 0 0 0 14.08 33.28L494.72 704a47.36 47.36 0 0 0 67.2 0zM817.92 704a47.36 47.36 0 0 0 0-64l-256-256 256-256a47.36 47.36 0 0 0-64-64L462.08 350.08A50.56 50.56 0 0 0 448 384a47.36 47.36 0 0 0 14.08 33.28L750.72 704a47.36 47.36 0 0 0 67.2 0z"  horiz-adv-x="1024" />

    
    <glyph glyph-name="youyou-" unicode="&#58946;" d="M462.08 704a47.36 47.36 0 0 1 0-64l256-256-256-256a47.36 47.36 0 1 1 64-64l288.64 288.64A50.56 50.56 0 0 1 832 384a47.36 47.36 0 0 1-14.08 33.28L529.28 704a47.36 47.36 0 0 1-67.2 0zM206.08 704a47.36 47.36 0 0 1 0-64l256-256-256-256a47.36 47.36 0 1 1 64-64l291.84 286.08A50.56 50.56 0 0 1 576 384a47.36 47.36 0 0 1-14.08 33.28L273.28 704a47.36 47.36 0 0 1-67.2 0z"  horiz-adv-x="1024" />

    
    <glyph glyph-name="shangyi" unicode="&#59198;" d="M815.955 466.803L544.003 733.774v0.307l-32.697 33.929-31.316-34.005v-0.202L208.612 462.827l45.197-45.131L479.99 643.542l0.163-451.274h64.012l-0.162 452.006 226.755-222.602zM256.05 64.029h512.099v-63.919H256.05z"  horiz-adv-x="1024" />

    
    <glyph glyph-name="liebiao4" unicode="&#58882;" d="M116.258455 430.96618h232.51505A116.257525 116.257525 0 0 1 465.03103 547.223705v232.51505A116.257525 116.257525 0 0 1 348.773505 895.99628h-232.51505A116.257525 116.257525 0 0 1 0.00093 779.738755v-232.51505A116.257525 116.257525 0 0 1 116.258455 430.96618zM93.00695 779.738755a23.251505 23.251505 0 0 0 23.251505 23.251505h232.51505a23.251505 23.251505 0 0 0 23.251505-23.251505v-232.51505a23.251505 23.251505 0 0 0-23.251505-23.251505h-232.51505a23.251505 23.251505 0 0 0-23.251505 23.251505zM907.739685 895.99628h-232.51505A116.257525 116.257525 0 0 1 558.03705 779.273725v-232.51505a116.722555 116.722555 0 0 1 116.257525-116.257525h232.51505a116.722555 116.722555 0 0 1 116.257525 116.257525v232.51505A116.722555 116.722555 0 0 1 907.739685 895.99628z m23.251505-348.772575a23.716535 23.716535 0 0 0-23.251505-23.251505h-232.51505a23.251505 23.251505 0 0 0-23.251505 23.251505v232.51505a23.251505 23.251505 0 0 0 23.251505 23.251505h232.51505a23.251505 23.251505 0 0 0 23.251505-23.251505zM907.739685 337.96016h-232.51505a116.257525 116.257525 0 0 1-116.257525-116.257525v-232.51505a116.722555 116.722555 0 0 1 116.257525-116.257525h232.51505a116.722555 116.722555 0 0 1 116.257525 116.257525v232.51505a116.722555 116.722555 0 0 1-116.257525 116.257525z m23.251505-348.772575a23.716535 23.716535 0 0 0-23.251505-23.251505h-232.51505a23.251505 23.251505 0 0 0-23.251505 23.251505v232.51505a23.251505 23.251505 0 0 0 23.251505 23.251505h232.51505a23.251505 23.251505 0 0 0 23.251505-23.251505zM348.773505 337.96016h-232.51505A116.722555 116.722555 0 0 1 0.00093 220.772575v-232.51505A116.722555 116.722555 0 0 1 116.258455-127.06994h232.51505a116.722555 116.722555 0 0 1 116.257525 116.257525v232.51505A116.257525 116.257525 0 0 1 348.773505 337.96016z m23.251505-348.772575a23.251505 23.251505 0 0 0-23.251505-23.251505h-232.51505a23.716535 23.716535 0 0 0-23.251505 23.251505v232.51505a23.251505 23.251505 0 0 0 23.251505 23.251505h232.51505a23.251505 23.251505 0 0 0 23.251505-23.251505z"  horiz-adv-x="1024" />

    
    <glyph glyph-name="yonghu1" unicode="&#58944;" d="M509.44-122.368c-141.312 0-277.504 59.904-372.736 164.352l-19.968 21.504 19.968 21.504c95.744 104.448 231.424 164.352 372.736 164.352 141.312 0 277.504-59.904 372.736-164.352l19.968-21.504-19.968-21.504c-95.232-104.448-231.424-164.352-372.736-164.352zM204.8 63.488c81.92-77.824 190.976-121.856 304.64-121.856 113.664 0 222.72 44.032 304.64 121.856-81.92 77.824-190.976 121.856-304.64 121.856-113.664 0-222.72-44.032-304.64-121.856zM509.952 295.424c-89.088 0-161.792 72.704-161.792 161.792 0 89.088 72.704 161.792 161.792 161.792s161.792-72.704 161.792-161.792c0-89.088-72.192-161.792-161.792-161.792z m0 259.584c-53.76 0-97.792-44.032-97.792-97.792s44.032-97.792 97.792-97.792 97.792 44.032 97.792 97.792-43.52 97.792-97.792 97.792zM119.296 176.64c-33.792 63.488-51.2 134.144-51.2 206.848 0 243.712 198.144 441.344 441.344 441.344s441.344-198.144 441.344-441.344c0-72.192-17.92-143.36-51.2-206.336 16.384-15.36 31.744-31.744 46.08-49.152 45.568 77.312 69.12 165.376 69.12 255.488 0 279.04-226.816 505.856-505.856 505.856C230.4 888.832 4.096 662.016 4.096 383.488c0-90.112 24.064-178.688 69.632-255.488 13.824 16.896 29.184 33.28 45.568 48.64z"  horiz-adv-x="1024" />

    
    <glyph glyph-name="shang" unicode="&#58906;" d="M514 777.4c-217.6 0-394.6-176.9-394.6-394.6s177-394.5 394.6-394.5 394.6 176.9 394.6 394.6-177 394.5-394.6 394.5z m0-746.4c-194 0-351.8 157.8-351.8 351.8S320 734.6 514 734.6s351.8-157.8 351.8-351.8S708 31 514 31zM451.3 465.4L296.6 310.7l30.2-30.2 154.7 154.7c17.9 17.9 47.1 17.9 65 0l154.7-154.7 30.2 30.2-154.7 154.7c-34.6 34.6-90.8 34.6-125.4 0z"  horiz-adv-x="1024" />

    
    <glyph glyph-name="shang1" unicode="&#58913;" d="M514 781.7c-219.9 0-398.8-178.9-398.8-398.8 0-220 178.9-398.9 398.8-398.9s398.8 178.9 398.8 398.9c0 219.8-178.9 398.8-398.8 398.8z m208.8-494.5c-11.5-11.5-26.5-17.2-41.5-17.2s-30.1 5.7-41.5 17.2L517.1 409.7 394.6 287.2c-22.9-22.9-60.2-22.9-83.1 0-22.9 22.9-22.9 60.2 0 83.1l164.1 164.1c22.9 22.9 60.2 22.9 83.1 0l164.1-164.1c22.9-23 22.9-60.2 0-83.1z"  horiz-adv-x="1024" />

    
    <glyph glyph-name="yonghu2" unicode="&#58927;" d="M831.904012-64.007999v95.988001a159.980002 159.980002 0 0 1-159.980003 159.980003h-319.960005a159.980002 159.980002 0 0 1-159.980002-159.980003v-95.988001a63.992001 63.992001 0 1 0-127.984002 0v95.988001a288.731909 288.731909 0 0 0 287.964004 287.964005h319.960005a288.731909 288.731909 0 0 0 287.964005-287.964005v-95.988001a63.992001 63.992001 0 1 0-127.984002 0z m-575.928009 703.912011a255.968004 255.968004 0 1 0 255.968004-255.968004 255.968004 255.968004 0 0 0-255.968004 255.968004z m127.984002 0a127.984002 127.984002 0 1 1 127.984002 127.984002 127.984002 127.984002 0 0 1-127.984002-127.984002z"  horiz-adv-x="1024" />

    
    <glyph glyph-name="zhuye3" unicode="&#59507;" d="M750.236735-13.061224H273.763265c-38.661224 0-70.530612 31.869388-70.530612 70.530612V331.755102c0 6.269388-5.22449 11.493878-10.971429 11.493878h-26.644897c-20.897959 0-38.661224 12.016327-47.020409 31.346938-7.836735 19.330612-3.657143 40.75102 10.971429 55.379592l324.440816 327.053061c15.673469 15.673469 36.04898 24.032653 57.991837 24.032653s42.318367-8.359184 57.991837-24.032653l324.440816-327.053061c14.628571-14.628571 18.808163-36.571429 10.971429-55.379592-7.836735-19.330612-26.122449-31.346939-47.020409-31.346938h-26.644897c-6.269388 0-10.971429-5.22449-10.971429-11.493878v-274.285714c0-38.661224-31.869388-70.530612-70.530612-70.530612zM656.195918-13.061224H367.804082v208.457142c0 43.885714 35.526531 79.412245 79.412245 79.412245h129.044897c43.885714 0 79.412245-35.526531 79.412245-79.412245V-13.061224z"  horiz-adv-x="1024" />

    
    <glyph glyph-name="zhuye4" unicode="&#59091;" d="M981.929813 371.370667c-9.756444 0-19.626667 3.413333-27.534222 10.211555L538.395591 741.034667l-4.494222 4.124444a31.488 31.488 0 0 1-43.320889 0c-1.251556-1.28-2.816-2.702222-4.494222-4.124444L69.944036 381.582222a42.097778 42.097778 0 0 0-59.676445 4.551111 42.723556 42.723556 0 0 0 4.522667 60.017778L430.761813 805.660444c0.284444 0.284444 1.137778 0.995556 1.422223 1.422223a115.484444 115.484444 0 0 0 159.687111 0l1.422222-1.422223L1009.23648 446.179556c17.777778-15.36 19.768889-42.183111 4.522667-60.046223-8.192-9.671111-20.024889-14.791111-31.857778-14.791111zM769.023147-99.555556h-77.027556c-61.354667 0-111.303111 50.261333-111.303111 112.014223V133.973333a27.192889 27.192889 0 0 1-26.652444 26.851556H477.040924a26.823111 26.823111 0 0 1-26.652444-26.851556v-121.514666c0-61.752889-49.948444-112.014222-111.303111-112.014223H256.283591c-61.354667 0-111.303111 50.261333-111.303111 112.014223v392.248889a42.382222 42.382222 0 0 0 42.325333 42.609777 42.382222 42.382222 0 0 0 42.325334-42.609777v-392.248889c0-14.791111 11.975111-26.823111 26.652444-26.823111h82.801778a26.823111 26.823111 0 0 1 26.652444 26.823111V133.973333c0 61.781333 49.948444 112.014222 111.303111 112.014223h77.027556c61.354667 0 111.303111-50.232889 111.303111-112.014223v-121.514666c0-14.791111 11.975111-26.823111 26.652445-26.823111h77.027555a26.823111 26.823111 0 0 1 26.652445 26.823111v392.248889a42.382222 42.382222 0 0 0 42.325333 42.609777 42.382222 42.382222 0 0 0 42.325333-42.609777v-392.248889c0-61.752889-49.948444-112.014222-111.303111-112.014223z"  horiz-adv-x="1024" />

    
    <glyph glyph-name="shangchuan1" unicode="&#58987;" d="M764.8 238c0 50.8-16.1 99.8-45.1 140.8-20.3-133.8-75.2-197.1-123.3-238.1-46.1-39.3-114.4-80.2-261.8-79.3 46-43.9 108.8-70.7 177-70.7 139.5-0.1 253.2 110.9 253.2 247.3zM260.3 361.8c4.5-2.9 9.5-4.3 14.4-4.3 8.7 0 17.3 4.3 22.4 12.2 15.2 23.6 34.3 44.4 56.7 61.8 11.6 9 13.7 25.8 4.7 37.4-9 11.6-25.8 13.7-37.4 4.7-27.1-21.1-50.2-46.3-68.7-74.9-8-12.4-4.4-28.9 7.9-36.9zM231.3 260.9c1.6-0.3 3.3-0.4 4.9-0.4 12.6 0 23.8 9 26.1 21.8 0.7 3.7 1.4 7.4 2.3 11 3.4 14.3-5.5 28.6-19.8 32-14.3 3.3-28.6-5.5-32-19.8-1-4.5-2-9-2.8-13.5-2.8-14.5 6.8-28.4 21.3-31.1zM713.5 464.1c-11.1 9.6-28 8.3-37.5-2.8-9.6-11.1-8.3-28 2.8-37.5 15.6-13.4 29.2-28.6 40.8-44.9 29.1-41 45.1-90 45.1-140.8 0-136.4-113.6-247.4-253.3-247.4-68.2 0-130.9 26.8-177 70.7-39.2 37.4-66.3 87.2-74 143.4-2 14.6-15.5 24.7-30 22.7-14.6-2-24.8-15.4-22.7-30 20.4-148.3 151-260.1 303.7-260.1 169 0 306.5 134.9 306.5 300.6 0.1 86.6-38 169-104.4 226.1zM677.3 607c5.2-5.2 12-7.8 18.8-7.8 6.8 0 13.6 2.6 18.8 7.8 10.4 10.4 10.4 27.3 0 37.7l-89.6 89.6c-10.4 10.4-27.3 10.4-37.6 0-10.4-10.4-10.4-27.3 0-37.7l89.6-89.6zM337.5 599.2c6.8 0 13.6 2.6 18.8 7.8l131.8 131.8v-514.9c0-14.7 11.9-26.6 26.6-26.6 14.7 0 26.6 11.9 26.6 26.6V795c4 9.6 2.1 21.1-5.8 29-10.4 10.4-27.3 10.4-37.6 0L318.7 644.7c-10.4-10.4-10.4-27.3 0-37.7 5.2-5.2 12-7.8 18.8-7.8z"  horiz-adv-x="1024" />

    
    <glyph glyph-name="sousuo4" unicode="&#59017;" d="M902.8 75.6L717.3 268.2l3.7 5.5c39.8 59.1 60.8 128.2 60.9 199.6 0 197.7-160.8 358.5-358.5 358.5S64.9 671 64.9 473.3c0-95.8 37.3-185.8 105-253.5 67.7-67.7 157.7-105 253.5-105 56.6 0.1 110.8 13 161.2 38.4v6.4l202.3-199.4c15.4-15.5 36-24 57.9-24s42.4 8.5 57.9 24c31.5 31.8 31.6 83.5 0.1 115.4z m-481.6 96.6c-167.2 0-303.3 136-303.3 303.3 0 167.2 136.1 303.3 303.3 303.3 167-0.2 303.1-136.2 303.3-303.3 0-167.3-136.1-303.3-303.3-303.3z m435.2-182.9c-3.7-1.5-7.7-2.3-11.7-2.3-8.4 0-16.5 3.5-22.3 9.5l-189 186.3 7.5 5.7c13.6 10.4 26.5 21.8 38.4 33.9l5.9 6L866.7 40c5.8-5.7 9.1-13.7 9-21.9 0.1-12.7-7.5-24-19.3-28.8zM342.1 290c-54.7 30.6-87.3 70.5-112.5 137.8l-1.7 4c-3.7 7.1-11.2 11.5-19.6 11.4-2.3-0.1-4.4-0.5-6.4-1.3-9.5-3.6-15.1-13.4-13.4-23.7l1.7-5.5c28.2-75 66.9-122.1 129.3-157.6 0.1-0.1 8.6-5.2 11.8-5.2l3.2-0.1h0.1c2.1 0.1 4.1 0.5 6.1 1.2 10.8 4.1 16.3 16.3 12.2 27.2-2 5.5-6 9.7-10.8 11.8zM196.8 464.3c5.7 2 10.4 6.1 13.1 11.6 2.7 5.5 3 11.7 1 17.5-3.2 9.4-12.1 15.5-22 15.4-2.4 0-4.8-0.5-7.1-1.3-11.9-4.1-18.2-17.1-14.1-29 3.2-9.4 12.1-15.6 22-15.4 2.4 0 4.8 0.5 7.1 1.2zM685.1 228.5l-5.9-6c-11.9-12.2-24.8-23.6-38.4-33.9l-7.5-5.7 189-186.3c5.8-6 13.9-9.5 22.3-9.5 4 0 7.9 0.8 11.7 2.3 11.8 4.8 19.4 16.1 19.3 28.8 0 8.2-3.3 16.2-9 21.9L685.1 228.5z"  horiz-adv-x="1024" />

    
    <glyph glyph-name="yonghu3" unicode="&#58963;" d="M457.338 80.735c5.965-7.953 4.353-19.235-3.6-25.2-7.953-5.964-19.236-4.352-25.2 3.6L310.45 216.594c-6.436 8.581-3.985 20.852 5.254 26.302l61.572 36.328c8.562 5.052 19.598 2.206 24.65-6.356 5.051-8.562 2.205-19.598-6.357-24.65l-44.255-26.11 106.024-141.372zM619.713 248.398c-8.462 5.218-11.092 16.307-5.875 24.769 5.217 8.462 16.306 11.093 24.768 5.875l59.553-36.716c8.707-5.368 11.196-16.903 5.478-25.384l-105.9-157.069c-5.557-8.243-16.745-10.42-24.987-4.862-8.243 5.557-10.42 16.745-4.862 24.987l95.419 141.524-43.594 26.876zM488.316 165.834c0 9.942 8.06 18 18 18 9.941 0 18-8.058 18-18v-95.898c0-9.941-8.059-18-18-18-9.94 0-18 8.059-18 18v95.898zM834.314 135.74c-3.21 13.474-10.434 28.077-21.933 41.824-14.748 17.631-35.584 32.812-63.265 44.428-33.384 14.01-75.51 22.307-127.109 23.735-9.937 0.275-17.77 8.554-17.495 18.491 0.275 9.938 8.554 17.77 18.491 17.495 55.85-1.545 102.337-10.702 140.043-26.525 32.916-13.813 58.461-32.425 76.948-54.526 15.126-18.082 24.854-37.748 29.34-56.579 1.855-7.788 2.718-15.165 2.563-21.42-0.083-3.357-0.457-6.447-1.197-9.253-1.443-5.464-3.933-10.012-9.629-13.341a18 18 0 0 0-3.604-1.606c-71.668-22.902-150.594-37.643-234.676-45.054-72.13-6.358-146.426-7.169-219.77-3.29-60.439 3.195-117.972 9.5-165.499 17.463-20.078 3.364-37.434 6.888-50.455 10.191-16.489 4.183-24.439 7.032-29.571 12.872a18 18 0 0 0-4.48 11.883c0 49.113 21.398 89.542 63.101 119.737 39.838 28.844 98.146 48.412 175.01 59.278 9.843 1.392 18.95-5.46 20.342-15.303 1.392-9.843-5.46-18.95-15.303-20.342-71.557-10.117-124.564-27.905-158.937-52.792-28.994-20.994-44.623-46.871-47.662-78.733 1.893-0.542 4.017-1.113 6.351-1.705 11.971-3.036 28.385-6.37 47.553-9.581 46.184-7.739 102.365-13.895 161.45-17.019 71.73-3.793 144.349-3 214.71 3.202 77.269 6.81 149.845 19.963 215.893 40.059a65.823 65.823 0 0 1-1.21 6.411zM509.28 208.905a18 18 0 0 0-4.805-0.15c-69.03 7.1-117.665 26.646-145.25 59.972-29.617 30.978-46.651 76.942-51.788 137.403-11.098 12.336-16.025 30.955-16.025 55.145 0 25.066 7.301 45.87 22 61.374-0.105 32.292-0.11 58.331-0.012 78.128-32.957 38.246-45.824 71.782-35.43 101.124a18 18 0 0 0 16.967 11.99h297.507c67.286 0 104.619-37.34 106.339-105.912a18 18 0 0 0 0.005-0.38c0.147-36.619 0.17-66.586 0.072-89.91 5.514-3.473 10.092-8.59 13.462-14.977 5.144-9.751 7.518-22.354 7.448-36.995 0-27.768-7.964-48.779-21.13-60.66-3.477-109.355-68.133-175.911-189.36-196.152z m153.508 205.569a18 18 0 0 0 10.117 16.182c0.482 0.235 1.195 0.757 2.025 1.611 1.242 1.278 2.48 3.034 3.63 5.313 3.24 6.42 5.21 15.728 5.21 28.222 0.045 9.3-1.271 16.288-3.288 20.11a8.956 8.956 0 0 1-0.554 0.925c-9.59 0.451-17.208 8.405-17.14 18.108 0.175 24.593 0.175 58.704 0.001 102.316-1.284 49.115-22.854 70.63-70.345 70.63H310.697c1.498-14.566 12.33-34.097 34.125-58.326a18 18 0 0 0 4.617-12.158c-0.146-21.797-0.146-52.607 0-92.41a18 18 0 0 0-6.432-13.858c-10.349-8.68-15.595-21.458-15.595-39.864 0-18.368 3.437-28.786 8.264-32.421a18 18 0 0 0 7.132-13.152c3.87-56.578 18.405-97.225 42.823-122.497a18 18 0 0 0 1-1.125c20.107-24.63 59.597-40.82 119.11-47.26 106.332 18.442 157.047 73.746 157.047 169.654zM320.276 593.32c-7.42 6.615-8.075 17.993-1.461 25.414 6.614 7.422 17.992 8.076 25.414 1.462 68.13-60.72 125.127-90.508 169.93-90.508h166.336c9.941 0 18-8.059 18-18 0-9.94-8.059-18-18-18H514.16c-55.509 0-119.783 33.592-193.884 99.633zM505.196 294.4c-12.446 0-24.31 2.786-33.54 7.91-11.078 6.152-18.282 15.608-18.282 27.09s7.204 20.938 18.282 27.09c9.23 5.124 21.094 7.91 33.54 7.91 12.447 0 24.31-2.786 33.54-7.91 11.078-6.152 18.282-15.608 18.282-27.09s-7.204-20.938-18.281-27.09c-9.23-5.124-21.094-7.91-33.54-7.91z m-19.948 32.39c4.865-2.7 12.06-4.39 19.948-4.39 7.889 0 15.084 1.69 19.949 4.39 1.629 0.905 2.809 1.823 3.508 2.61-0.7 0.787-1.88 1.705-3.508 2.61-4.865 2.7-12.06 4.39-19.949 4.39-7.888 0-15.083-1.69-19.948-4.39-1.63-0.905-2.809-1.823-3.509-2.61 0.7-0.787 1.88-1.705 3.509-2.61z"  horiz-adv-x="1024" />

    
    <glyph glyph-name="shoucang6" unicode="&#58930;" d="M1004.8 499.2c-12.8 38.4-38.4 57.6-70.4 64l-236.8 38.4-102.4 217.6c-12.8 32-51.2 51.2-83.2 51.2-38.4 0-64-19.2-83.2-51.2l-102.4-217.6-236.8-44.8c-32-6.4-57.6-25.6-70.4-57.6-12.8-32-6.4-57.6 25.6-96l166.4-153.6-44.8-230.4c-6.4-38.4 6.4-70.4 32-89.6 19.2-12.8 38.4-19.2 51.2-19.2 12.8 0 32 6.4 38.4 12.8l217.6 108.8 217.6-108.8c12.8-6.4 32-12.8 38.4-12.8 19.2 0 38.4 6.4 51.2 19.2 32 25.6 38.4 51.2 32 89.6l-44.8 230.4 166.4 160c38.4 25.6 51.2 57.6 38.4 89.6z m-51.2-64l-185.6-179.2 44.8-249.6c0-12.8-6.4-38.4-19.2-51.2-6.4-6.4-19.2-6.4-25.6-6.4-6.4 0-12.8 0-25.6 6.4l-230.4 121.6-236.8-121.6h-6.4c-6.4 0-6.4-6.4-12.8-6.4s-19.2 0-32 6.4-25.6 32-25.6 44.8l51.2 256-179.2 172.8c-12.8 12.8-12.8 38.4-12.8 51.2 6.4 19.2 25.6 32 38.4 38.4l256 44.8 115.2 230.4c6.4 19.2 25.6 32 44.8 32 12.8 0 38.4-12.8 44.8-32l115.2-230.4 256-44.8c12.8 0 32-12.8 38.4-32 6.4-19.2 6.4-32-12.8-51.2zM1017.6 505.6c-12.8 44.8-44.8 70.4-83.2 76.8l-224 38.4-102.4 204.8c-12.8 38.4-57.6 64-96 64-44.8 0-76.8-19.2-96-64l-102.4-204.8-224-44.8c-38.4-6.4-70.4-32-83.2-70.4-12.8-38.4-6.4-70.4 25.6-108.8l160-153.6-44.8-217.6c-6.4-44.8 6.4-83.2 44.8-102.4 19.2-12.8 38.4-19.2 64-19.2 12.8 0 38.4 6.4 51.2 12.8l204.8 108.8 204.8-108.8c12.8-6.4 32-12.8 51.2-12.8 19.2 0 38.4 6.4 64 19.2 32 25.6 51.2 64 38.4 102.4l-44.8 217.6 166.4 160c25.6 25.6 38.4 64 25.6 102.4z m-204.8-256l44.8-230.4c6.4-38.4-6.4-64-32-89.6-19.2-12.8-38.4-19.2-51.2-19.2-12.8 0-32 6.4-38.4 12.8l-217.6 108.8-217.6-108.8c-12.8-6.4-32-12.8-38.4-12.8-19.2 0-38.4 6.4-51.2 19.2-25.6 19.2-38.4 51.2-32 89.6l44.8 230.4-166.4 153.6c-25.6 32-32 64-25.6 96 12.8 32 38.4 51.2 70.4 57.6l236.8 44.8 102.4 217.6c19.2 32 44.8 51.2 83.2 51.2 32 0 70.4-25.6 83.2-51.2l102.4-217.6 236.8-38.4c32-6.4 57.6-25.6 70.4-64 12.8-25.6 0-64-25.6-89.6l-179.2-160zM928 512l-256 44.8-115.2 230.4c-6.4 12.8-32 32-44.8 32-19.2 0-38.4-12.8-44.8-32l-115.2-230.4-256-44.8c-12.8-6.4-25.6-12.8-38.4-38.4 0-12.8 0-38.4 12.8-51.2l179.2-172.8-51.2-256c0-12.8 6.4-38.4 25.6-44.8 6.4-6.4 25.6-6.4 32-6.4 6.4 0 6.4 0 12.8 6.4h6.4l236.8 121.6 230.4-121.6c6.4-6.4 19.2-6.4 25.6-6.4 6.4 0 19.2 0 25.6 6.4 12.8 12.8 19.2 38.4 19.2 51.2l-44.8 249.6 185.6 179.2c19.2 19.2 19.2 32 12.8 44.8-6.4 25.6-19.2 38.4-38.4 38.4z m12.8-57.6l-192-185.6v-6.4l44.8-256c0-12.8-6.4-25.6-19.2-38.4h-12.8c-6.4 0-12.8 0-12.8 6.4l-243.2 128-243.2-121.6c-6.4-6.4-6.4-6.4-12.8-6.4-12.8 0-19.2 0-19.2 6.4-6.4 6.4-12.8 19.2-12.8 25.6l51.2 256v6.4l-185.6 172.8c-6.4 6.4-6.4 6.4-6.4 12.8v19.2c6.4 12.8 12.8 19.2 25.6 25.6l262.4 44.8 115.2 243.2c0 6.4 12.8 19.2 32 19.2 12.8 0 25.6-12.8 32-19.2l115.2-236.8v-6.4l268.8-44.8c6.4 0 19.2-6.4 25.6-19.2 0-12.8 0-19.2-12.8-25.6z"  horiz-adv-x="1024" />

    
    <glyph glyph-name="zhuye5" unicode="&#58914;" d="M941.5 390.2L559.2 736.6l-25.6 23.2c-12.2 10.9-31.8 10.9-43.9 0l-408-369.6c-12.2-11-18.7-25.7-18.6-41.3 0.4-31.6 29.4-56.8 64.2-56.8h42.1V0H854V292.1h42.9c16.9 0 32.9 6 44.8 16.9 12 10.9 18.5 25.3 18.5 40.6-0.1 15.3-6.7 29.7-18.7 40.6zM567 64.6H456.1v183H567v-183z m215.6 292.1v-292.1H630.3V269.1c0 19.8-17.7 35.9-39.6 35.9H432.4c-21.9 0-39.6-16.1-39.6-35.9v-204.5H240.5V356.7h-95l366.1 331.6 22.9-20.7 343.2-310.9h-95.1z m0 0"  horiz-adv-x="1024" />

    
    </font>
</defs>
</svg>
